<svg xmlns="http://www.w3.org/2000/svg" xmlns:xlink="http://www.w3.org/1999/xlink" width="18" height="18" version="1.1" xml:space="preserve" style="fill-rule:evenodd;clip-rule:evenodd;stroke-linejoin:round;stroke-miterlimit:2"><g transform="matrix(0.9,0,0,0.9,3.33067e-16,3.33067e-16)"><rect width="20" height="20" x="0" y="0" style="fill-opacity:0"/></g><g><path d="M12.5,15.071C12.5,14.48 11.94,14 11.25,14C10.56,14 10,14.48 10,15.071L10,17.929C10,18.52 10.56,19 11.25,19C11.94,19 12.5,18.52 12.5,17.929L12.5,15.071Z" transform="matrix(3.67394e-17,-0.6,0.7,4.28626e-17,2.95,16.25)"/></g><g><path d="M12.5,15.071C12.5,14.48 11.94,14 11.25,14C10.56,14 10,14.48 10,15.071L10,17.929C10,18.52 10.56,19 11.25,19C11.94,19 12.5,18.52 12.5,17.929L12.5,15.071Z" transform="matrix(3.67394e-17,-0.6,0.7,4.28626e-17,-2.05,16.25)"/></g><g><path d="M12.5,15.071C12.5,14.48 11.94,14 11.25,14C10.56,14 10,14.48 10,15.071L10,17.929C10,18.52 10.56,19 11.25,19C11.94,19 12.5,18.52 12.5,17.929L12.5,15.071Z" transform="matrix(3.67394e-17,-0.6,0.7,4.28626e-17,-7.05,16.25)"/></g><g><path d="M4.25,9.5L6,13.5L2.5,13.5L4.25,9.5Z" transform="matrix(2,2.46519e-32,0,1.125,1,0.8125)"/></g><g><path d="M4.25,9.5L6,13.5L2.5,13.5L4.25,9.5Z" transform="matrix(2,2.44929e-16,1.37773e-16,-1.125,1,18.1875)"/></g></svg>