<svg xmlns="http://www.w3.org/2000/svg" xmlns:xlink="http://www.w3.org/1999/xlink" width="18" height="18" version="1.1" xml:space="preserve" style="fill-rule:evenodd;clip-rule:evenodd;stroke-linejoin:round;stroke-miterlimit:2"><g transform="matrix(0.818182,0,0,0.818182,-6.66134e-16,-6.66134e-16)"><rect width="22" height="22" x="0" y="0" style="fill:#333;fill-opacity:0"/></g><g><g><g><g><path d="M16,10.669L16,16L0,16L0,2L6.414,2L8.414,4L16,4L16,7L3.347,7L3.347,7L3,7L3,6L15,6L15,5L8,5L6,3L1,3L1,15.111L15,15.111L15,15C15,15 16,10.669 16,10.669Z" style="fill:#303030" transform="matrix(1,0,0,1,0,-1) matrix(0.933333,0,0,1.11111,-1.8,-3.55554) matrix(0.964286,0,-0.271078,0.986302,5.44094,0.142453) matrix(1.11111,0,0.25652,0.9125,-2.51447,4.0125)"/></g><g><path d="M1.545,14.805L1,15L1,3L6,3L8,5L15,5L15,7L16.847,7L15,15L1.5,15L1.545,14.805Z" style="fill:#fff;fill-opacity:.7" transform="matrix(1,0,0,1,0,-1) matrix(0.933333,0,0,1.11111,-1.8,-3.55554) matrix(0.964286,0,-0.271078,0.986302,5.44094,0.142453) matrix(1.11111,0,0.25652,0.9125,-2.51447,4.0125)"/></g><g><path d="M7.545,12.999L7.535,12.999C7.007,12.999 6.972,12 7.5,12L13,12L13,10L15.5,12.5L13,15L13,13L7.545,12.999Z" style="fill:#1a1a1a" transform="matrix(1,0,0,1,0,-1) matrix(0.933333,0,0,1.11111,-1.8,-3.55554) matrix(0.964286,0,-0.271078,0.986302,5.44094,0.142453) matrix(1.11111,0,0.25652,0.9125,-4.99321,3.1)"/></g></g><g><path d="M18,6L18,6.451L15.795,16L0.948,16L0.948,14.886L3,6L18,6ZM1.948,15L15,15L16.847,7L3.795,7L1.948,15Z" style="fill:#303030" transform="matrix(1,0,0,1,0,-1) matrix(0.933333,0,0,1.11111,-1.8,-3.55554) matrix(1.07143,0,0,0.900001,1.92857,4.09999)"/></g></g></g></svg>