<svg xmlns="http://www.w3.org/2000/svg" xmlns:xlink="http://www.w3.org/1999/xlink" width="20" height="20" version="1.1" xml:space="preserve" style="fill-rule:evenodd;clip-rule:evenodd;stroke-linejoin:round;stroke-miterlimit:2"><rect width="20" height="20" x="0" y="0" style="fill-opacity:0"/><path id="path6" d="M4,12L6,12L6,14L4,14L4,12ZM7,12L9,12L9,14L7,14L7,12ZM10,12L12,12L12,14L10,14L10,12ZM15,12L15,14L13,14L13,12L15,12ZM4,9L6,9L6,11L4,11L4,9ZM7,9L9,9L9,11L7,11L7,9ZM10,9L12,9L12,11L10,11L10,9ZM13,9L15,9L15,11L13,11L13,9ZM4,6L6,6L6,8L4,8L4,6ZM7,6L9,6L9,8L7,8L7,6ZM10,6L12,6L12,8L10,8L10,6ZM14,7L13,7L13,8L14,8L14,7ZM14,6L15,6L15,7L14,7L14,6Z" style="fill:#000;fill-rule:nonzero"/><g id="path12"><path d="M15,6L14,6L14,5L15,5L15,4L14,4L14,3L17,3L17,6L16,6L16,5L15,5L15,6Z" style="fill:#000;fill-rule:nonzero" transform="matrix(1,0,0,1,0,1)"/></g></svg>