<svg xmlns="http://www.w3.org/2000/svg" xmlns:xlink="http://www.w3.org/1999/xlink" width="20" height="20" version="1.1" xml:space="preserve" style="fill-rule:evenodd;clip-rule:evenodd;stroke-linejoin:round;stroke-miterlimit:2"><g transform="matrix(1.25,0,0,1.25,3.9968e-15,2.66454e-15)"><rect width="16" height="16" x="0" y="0" style="fill-opacity:0"/></g><g><path d="M11,5L17,11L11,17L5,11L11,5ZM6.305,11L11,15.695L15.695,11L11,6.305L6.305,11Z" style="fill:#000" transform="matrix(1.16666,0,0,1.16667,-2.83328,-2.83339)"/><g><path d="M10,3.5L10,16.5L3.5,10L10,3.5Z" style="fill:#000" transform="matrix(1.16666,0,0,1.16667,-2.83328,-2.83339) matrix(0.857145,0,0,0.85714,2.42853,2.42861)"/></g></g></svg>