<svg xmlns="http://www.w3.org/2000/svg" xmlns:xlink="http://www.w3.org/1999/xlink" width="20" height="20" version="1.1" xml:space="preserve" style="fill-rule:evenodd;clip-rule:evenodd;stroke-linejoin:round;stroke-miterlimit:2"><rect width="20" height="20" x="0" y="0" style="fill-opacity:0"/><g id="Cutter"><g transform="matrix(1.11111,0,0,1.11111,-7.44444,-8.4444) matrix(1,0,0,1,-1.8,-0.900001)"><circle cx="17.5" cy="17.5" r="4.5" style="fill:#000;fill-opacity:.4"/></g><g><path d="M17.5,13C19.984,13 22,15.016 22,17.5C22,19.984 19.984,22 17.5,22C15.016,22 13,19.984 13,17.5C13,15.016 15.016,13 17.5,13ZM17.5,13.9C19.487,13.9 21.1,15.513 21.1,17.5C21.1,19.487 19.487,21.1 17.5,21.1C15.513,21.1 13.9,19.487 13.9,17.5C13.9,15.513 15.513,13.9 17.5,13.9Z" style="fill:#000" transform="matrix(1.11111,0,0,1.11111,-7.44444,-8.4444) matrix(1,0,0,1,-1.8,-0.900001)"/></g></g></svg>