<svg xmlns="http://www.w3.org/2000/svg" xmlns:xlink="http://www.w3.org/1999/xlink" width="100%" height="100%" version="1.1" viewBox="0 0 18 17" xml:space="preserve" style="fill-rule:evenodd;clip-rule:evenodd;stroke-linejoin:round;stroke-miterlimit:1.4142"><path id="path821" d="M2,8.5C2,8.5 4.6,4 9,4C13.4,4 16,8.5 16,8.5C16,8.5 13.4,13 9,13C4.6,13 2,8.5 2,8.5Z" style="fill:#e6e6e6;fill-rule:nonzero;stroke:#303030;stroke-width:2px"/><path id="path832" d="M2,8.5C2,8.5 4.6,4 9,4C13.4,4 16,8.5 16,8.5C16,8.5 13.4,13 9,13C4.6,13 2,8.5 2,8.5Z" style="fill:#e6e6e6;fill-rule:nonzero"/><ellipse id="path21" cx="9" cy="8.5" rx="3.5" ry="3.6" style="fill:#303030"/><circle id="path1450" cx="8" cy="7.5" r="1.5" style="fill:#e6e6e6"/><g><path d="M0.684,4L0.684,0.929L3.513,0.929" style="fill:none;stroke:#bdbdbd;stroke-width:2px;stroke-linecap:round;stroke-miterlimit:1.5" transform="matrix(1,0,0,1,0.734235,0.518659)"/></g><g><path d="M0.684,4L0.684,0.929L3.513,0.929" style="fill:none;stroke:#303030;stroke-width:1.5px;stroke-linecap:round;stroke-miterlimit:1.5" transform="matrix(1,0,0,1,0.734235,0.518659)"/></g><g><path d="M0.684,4L0.684,0.929L3.513,0.929" style="fill:none;stroke:#bdbdbd;stroke-width:2px;stroke-linecap:round;stroke-miterlimit:1.5" transform="matrix(6.12323e-17,-1,1,6.12323e-17,0.489235,16.2887)"/></g><g><path d="M0.684,4L0.684,0.929L3.513,0.929" style="fill:none;stroke:#303030;stroke-width:1.5px;stroke-linecap:round;stroke-miterlimit:1.5" transform="matrix(6.12323e-17,-1,1,6.12323e-17,0.489235,16.2887)"/></g><g><path d="M0.684,4L0.684,0.929L3.513,0.929" style="fill:none;stroke:#bdbdbd;stroke-width:2px;stroke-linecap:round;stroke-miterlimit:1.5" transform="matrix(-1,-1.22465e-16,1.22465e-16,-1,17.2961,16.5337)"/></g><g><path d="M0.684,4L0.684,0.929L3.513,0.929" style="fill:none;stroke:#303030;stroke-width:1.5px;stroke-linecap:round;stroke-miterlimit:1.5" transform="matrix(-1,-1.22465e-16,1.22465e-16,-1,17.2961,16.5337)"/></g><g><path d="M0.684,4L0.684,0.929L3.513,0.929" style="fill:none;stroke:#bdbdbd;stroke-width:2px;stroke-linecap:round;stroke-miterlimit:1.5" transform="matrix(-1.83697e-16,1,-1,-1.83697e-16,17.5411,0.763694)"/></g><g><path d="M0.684,4L0.684,0.929L3.513,0.929" style="fill:none;stroke:#303030;stroke-width:1.5px;stroke-linecap:round;stroke-miterlimit:1.5" transform="matrix(-1.83697e-16,1,-1,-1.83697e-16,17.5411,0.763694)"/></g></svg>