<svg xmlns="http://www.w3.org/2000/svg" xmlns:svg="http://www.w3.org/2000/svg" xmlns:xlink="http://www.w3.org/1999/xlink" id="svg2" x="0" y="0" version="1.1" viewBox="0 0 17 17" style="enable-background:new 0 0 17 17" xml:space="preserve"><style type="text/css">.st0{fill-opacity:.2471}.st1{fill:#e6e6e6}.st2{fill:#303030}.st3{fill:#404040}.st4{fill:#939393}.st5{fill:#fff}</style><g><g id="g6"><path id="path8" d="M13.1,8L13.1,8l0.1,0l0.1,0l0.1,0l0.1,0l0.1,0l0.1,0l0.1,0 l0.1,0l0.1,0l0,0l0,0.1l0,0.1l0,0.1l0,0.1l0,0.1l0,0.1l0,0.1l0,0.1l0,0.1l0,0.1L14,9v5l0,0.1l0,0.1l0,0.1l0,0.1l0,0.1l0,0.1l0,0.1 l0,0.1l0,0.1l0,0.1l0,0.1l0,0l-0.1,0l-0.1,0l-0.1,0l-0.1,0l-0.1,0l-0.1,0l-0.1,0l-0.1,0l-0.1,0l-0.1,0L13,15H1l-0.1,0l-0.1,0 l-0.1,0l-0.1,0l-0.1,0l-0.1,0l-0.1,0l-0.1,0l-0.1,0l-0.1,0l-0.1,0l0,0l0-0.1l0-0.1l0-0.1l0-0.1l0-0.1l0-0.1l0-0.1l0-0.1l0-0.1 l0-0.1L0,14V9l0-0.1l0-0.1l0-0.1l0-0.1l0-0.1l0-0.1l0-0.1l0-0.1l0-0.1l0-0.1l0-0.1l0,0l0.1,0l0.1,0l0.1,0l0.1,0l0.1,0l0.1,0l0.1,0 l0.1,0l0.1,0l0.1,0L1,8L13.1,8L13.1,8z M1,9v5h12V9H1L1,9z" class="st0"/><rect id="rect10" width="12" height="5" x="1" y="8" class="st1"/><path id="path12" d="M13.1,7L13.1,7l0.1,0l0.1,0l0.1,0l0.1,0l0.1,0l0.1,0l0.1,0 l0.1,0l0.1,0l0,0l0,0.1l0,0.1l0,0.1l0,0.1l0,0.1l0,0.1l0,0.1l0,0.1l0,0.1l0,0.1L14,8v5l0,0.1l0,0.1l0,0.1l0,0.1l0,0.1l0,0.1l0,0.1 l0,0.1l0,0.1l0,0.1l0,0.1l0,0l-0.1,0l-0.1,0l-0.1,0l-0.1,0l-0.1,0l-0.1,0l-0.1,0l-0.1,0l-0.1,0l-0.1,0L13,14H1l-0.1,0l-0.1,0 l-0.1,0l-0.1,0l-0.1,0l-0.1,0l-0.1,0l-0.1,0l-0.1,0l-0.1,0l-0.1,0l0,0l0-0.1l0-0.1l0-0.1l0-0.1l0-0.1l0-0.1l0-0.1l0-0.1l0-0.1 l0-0.1L0,13V8l0-0.1l0-0.1l0-0.1l0-0.1l0-0.1l0-0.1l0-0.1l0-0.1l0-0.1l0-0.1l0-0.1l0,0l0.1,0l0.1,0l0.1,0l0.1,0l0.1,0l0.1,0l0.1,0 l0.1,0l0.1,0l0.1,0L1,7L13.1,7L13.1,7z M1,8v5h12V8H1L1,8z" class="st2"/></g><g id="g14"><rect id="rect16" width="12" height="2" x="1" y="6" class="st1"/><path id="path18" d="M13.1,5L13.1,5l0.1,0l0.1,0l0.1,0l0.1,0l0.1,0l0.1,0l0.1,0 l0.1,0l0.1,0l0,0l0,0.1l0,0.1l0,0.1l0,0.1l0,0.1l0,0.1l0,0.1l0,0.1l0,0.1l0,0.1L14,6v2l0,0.1l0,0.1l0,0.1l0,0.1l0,0.1l0,0.1l0,0.1 l0,0.1l0,0.1l0,0.1l0,0.1l0,0l-0.1,0l-0.1,0l-0.1,0l-0.1,0l-0.1,0l-0.1,0l-0.1,0l-0.1,0l-0.1,0l-0.1,0L13,9H1L0.9,9L0.9,9L0.8,9 L0.7,9l-0.1,0l-0.1,0l-0.1,0l-0.1,0l-0.1,0l-0.1,0l-0.1,0l0,0l0-0.1l0-0.1l0-0.1l0-0.1l0-0.1l0-0.1l0-0.1l0-0.1l0-0.1l0-0.1L0,8V6 l0-0.1l0-0.1l0-0.1l0-0.1l0-0.1l0-0.1l0-0.1l0-0.1l0-0.1l0-0.1l0-0.1l0,0l0.1,0l0.1,0l0.1,0l0.1,0l0.1,0l0.1,0l0.1,0l0.1,0l0.1,0 l0.1,0L1,5L13.1,5L13.1,5z M1,6v2h12V6H1L1,6z" class="st3"/></g><path id="path20" d="M4,14H3V9h1V14z M6,14H5V9h1V14z M8,14H7V9h1V14z M10,14H9V9h1 V14z M12,14h-1V9h1V14z M2,9v5H1V9H2z" class="st4"/><g id="g22"><path id="path24" d="M8,5h3V2h2v3h3v2h-3v3h-2V7H8V5z" class="st3"/><path id="path26" d="M14,4h3v4h-3v3h-4V8H7V4h3V1h4V4z M11,2v3H8v2h3v3h2V7h3V5h-3 V2H11z" class="st5"/></g></g></svg>