<svg xmlns="http://www.w3.org/2000/svg" xmlns:svg="http://www.w3.org/2000/svg" xmlns:xlink="http://www.w3.org/1999/xlink" id="svg2" x="0" y="0" version="1.1" viewBox="0 0 21 17" style="enable-background:new 0 0 21 17" xml:space="preserve"><style type="text/css">.st0{fill:none}.st1{fill:#fff}.st2{fill:#242424}.st3{fill:#ecb31b}</style><rect id="rect4_1_" width="21" height="17" y="0" class="st0"/><path id="path6_1_" d="M5.2,3.4h4.1L9.2,5.2h5l0.8,8.3H5.3L5.2,3.4	C5.2,3.4,5.2,3.4,5.2,3.4z" class="st1"/><path id="path8_1_" d="M15,5L15,5l1,9H5V3h10V5z M5.9,4v9h9l-0.7-7h-0.1V4H5.9L5.9,4z" class="st2"/><rect id="rect14_2_" width="2" height="1" x="5" y="5" class="st2"/><path id="path10" d="M16.4,5.3h-10v8.4h9.7C16.1,13.7,16.4,5.3,16.4,5.3z" class="st3"/><path id="path12_1_" d="M16.5,14H6V5h10.5V14L16.5,14z M7,6v7h8.6V6H7z" class="st2"/></svg>