<svg xmlns="http://www.w3.org/2000/svg" xmlns:svg="http://www.w3.org/2000/svg" xmlns:xlink="http://www.w3.org/1999/xlink" id="svg2" x="0" y="0" version="1.1" viewBox="0 0 17 17" style="enable-background:new 0 0 17 17" xml:space="preserve"><style type="text/css">.st0{stroke:#404040;stroke-linecap:round;stroke-linejoin:round}.st0,.st1{fill:#404040}.st2{fill:#00f}</style><rect id="rect6_1_" width="13" height="13" x="2" y="2" class="st0"/><path d="M15,16H2c-0.6,0-1-0.5-1-1V2c0-0.6,0.5-1,1-1h13c0.6,0,1,0.5,1,1v13C16,15.6,15.6,16,15,16z M2.5,14.5h12v-12	h-12l0,0V14.5z" class="st1"/><path id="path11_1_" d="M13.5,8.5c0,2.8-2.2,5-5,5s-5-2.2-5-5	s2.2-5,5-5S13.5,5.7,13.5,8.5z" class="st2"/></svg>