<svg xmlns="http://www.w3.org/2000/svg" xmlns:svg="http://www.w3.org/2000/svg" xmlns:xlink="http://www.w3.org/1999/xlink" id="svg2" x="0" y="0" version="1.1" viewBox="0 0 21 17" style="enable-background:new 0 0 21 17" xml:space="preserve"><style type="text/css">.st0{fill:none}.st1{fill-opacity:.2471}.st2{fill:#e6e6e6}.st3{fill:#404040}.st4{fill:#82e600}.st5{fill:#506930}.st6{fill:#888}</style><g><rect id="rect4" width="21" height="17" y="0" class="st0"/><g id="g6"><path id="path8" d="M16.1,8L16.1,8l0.1,0l0.1,0l0.1,0l0.1,0l0.1,0l0.1,0l0.1,0 l0.1,0l0.1,0l0,0l0,0.1l0,0.1l0,0.1l0,0.1l0,0.1l0,0.1l0,0.1l0,0.1l0,0.1l0,0.1L17,9v5l0,0.1l0,0.1l0,0.1l0,0.1l0,0.1l0,0.1l0,0.1 l0,0.1l0,0.1l0,0.1l0,0.1l0,0l-0.1,0l-0.1,0l-0.1,0l-0.1,0l-0.1,0l-0.1,0l-0.1,0l-0.1,0l-0.1,0l-0.1,0L16,15H4l-0.1,0l-0.1,0 l-0.1,0l-0.1,0l-0.1,0l-0.1,0l-0.1,0l-0.1,0l-0.1,0l-0.1,0l-0.1,0l0,0l0-0.1l0-0.1l0-0.1l0-0.1l0-0.1l0-0.1l0-0.1l0-0.1l0-0.1 l0-0.1L3,14V9l0-0.1l0-0.1l0-0.1l0-0.1l0-0.1l0-0.1l0-0.1l0-0.1l0-0.1l0-0.1l0-0.1l0,0l0.1,0l0.1,0l0.1,0l0.1,0l0.1,0l0.1,0l0.1,0 l0.1,0l0.1,0l0.1,0L4,8L16.1,8L16.1,8z M4,9v5h12V9H4L4,9z" class="st1"/><rect id="rect10" width="12" height="5" x="4" y="8" class="st2"/><path id="path12" d="M16.1,7L16.1,7l0.1,0l0.1,0l0.1,0l0.1,0l0.1,0l0.1,0l0.1,0 l0.1,0l0.1,0l0,0l0,0.1l0,0.1l0,0.1l0,0.1l0,0.1l0,0.1l0,0.1l0,0.1l0,0.1l0,0.1L17,8v5l0,0.1l0,0.1l0,0.1l0,0.1l0,0.1l0,0.1l0,0.1 l0,0.1l0,0.1l0,0.1l0,0.1l0,0l-0.1,0l-0.1,0l-0.1,0l-0.1,0l-0.1,0l-0.1,0l-0.1,0l-0.1,0l-0.1,0l-0.1,0L16,14H4l-0.1,0l-0.1,0 l-0.1,0l-0.1,0l-0.1,0l-0.1,0l-0.1,0l-0.1,0l-0.1,0l-0.1,0l-0.1,0l0,0l0-0.1l0-0.1l0-0.1l0-0.1l0-0.1l0-0.1l0-0.1l0-0.1l0-0.1 l0-0.1L3,13V8l0-0.1l0-0.1l0-0.1l0-0.1l0-0.1l0-0.1l0-0.1l0-0.1l0-0.1l0-0.1l0-0.1l0,0l0.1,0l0.1,0l0.1,0l0.1,0l0.1,0l0.1,0l0.1,0 l0.1,0l0.1,0l0.1,0L4,7L16.1,7L16.1,7z M4,8v5h12V8H4L4,8z" class="st3"/></g><g id="g14"><rect id="rect16" width="12" height="2" x="4" y="6" class="st4"/><path id="path18" d="M16.1,5L16.1,5l0.1,0l0.1,0l0.1,0l0.1,0l0.1,0l0.1,0l0.1,0 l0.1,0l0.1,0l0,0l0,0.1l0,0.1l0,0.1l0,0.1l0,0.1l0,0.1l0,0.1l0,0.1l0,0.1l0,0.1L17,6v2l0,0.1l0,0.1l0,0.1l0,0.1l0,0.1l0,0.1l0,0.1 l0,0.1l0,0.1l0,0.1l0,0.1l0,0l-0.1,0l-0.1,0l-0.1,0l-0.1,0l-0.1,0l-0.1,0l-0.1,0l-0.1,0l-0.1,0l-0.1,0L16,9H4L3.9,9L3.9,9L3.8,9 L3.7,9l-0.1,0l-0.1,0l-0.1,0l-0.1,0l-0.1,0l-0.1,0l-0.1,0l0,0l0-0.1l0-0.1l0-0.1l0-0.1l0-0.1l0-0.1l0-0.1l0-0.1l0-0.1l0-0.1L3,8V6 l0-0.1l0-0.1l0-0.1l0-0.1l0-0.1l0-0.1l0-0.1l0-0.1l0-0.1l0-0.1l0-0.1l0,0l0.1,0l0.1,0l0.1,0l0.1,0l0.1,0l0.1,0l0.1,0l0.1,0l0.1,0 l0.1,0L4,5L16.1,5L16.1,5z M4,6v2h12V6H4L4,6z" class="st5"/></g><path id="path20" d="M7,14H6V9h1V14z M9,14H8V9h1V14z M11,14h-1V9h1V14z M13,14h-1V9 h1V14z M15,14h-1V9h1V14z M5,9v5H4V9H5z" class="st6"/></g></svg>