<svg xmlns="http://www.w3.org/2000/svg" xmlns:xlink="http://www.w3.org/1999/xlink" width="18" height="18"><g><path fill="none" stroke="#000" stroke-linecap="round" stroke-linejoin="round" d="M4.990000,6.460000 C4.090000,6.460000,3.190000,6.450000,2.480000,6.460000 C2.442780,8.730400,2.481390,14.288960,2.500000,15.480000 C4.330000,15.500000,13.380000,15.530000,15.503160,15.497390 C15.485700,13.936270,15.500000,13.130001,15.490000,12.540000" style="fill:none;stroke-width:3px;stroke:#000" stroke-width="3"/><path fill="none" stroke="#e1e1e1" stroke-linecap="round" stroke-linejoin="round" d="M4.990000,6.460000 C4.090000,6.460000,3.190000,6.450000,2.480000,6.460000 C2.442780,8.730400,2.481390,14.288960,2.500000,15.480000 C4.330000,15.500000,13.380000,15.530000,15.503160,15.497390 C15.485700,13.936270,15.500000,13.130001,15.490000,12.540000" style="fill:none;stroke-width:1px;stroke:#dadada" stroke-width="1"/><path fill="#e1e1e1" stroke="#000" stroke-linecap="round" stroke-linejoin="round" d="M4.516115,2.800300 C4.528944,2.710657,7.148933,1.495891,9.152529,1.827633 C12.707960,2.368776,13.771301,7.426581,13.771301,7.426581 L15.813615,7.454499 L11.502122,12.703727 L7.213098,7.410067 L9.413451,7.456206 C9.413451,7.456206,10.450825,5.202870,8.518152,4.027119 C8.138082,3.730255,4.496078,2.940309,4.516115,2.800310 Z" style="fill:#dadada;stroke-width:1px;stroke:#000" stroke-width="1"/></g></svg>