<svg xmlns="http://www.w3.org/2000/svg" xmlns:svg="http://www.w3.org/2000/svg" xmlns:xlink="http://www.w3.org/1999/xlink" id="svg2" x="0" y="0" version="1.1" viewBox="0 0 17 17" style="enable-background:new 0 0 17 17" xml:space="preserve"><style type="text/css">.st0{fill:#ffdc00}.st1{fill:#ebebeb}.st2{fill:#4a4a4a}.st3{fill:#ebebeb;fill-opacity:.502}.st4{fill:#4a4a4a;fill-opacity:.7412}</style><rect id="rect6_1_" width="13" height="13" x="2" y="2" class="st0"/><rect id="rect12_1_" width="7" height="5" x="4" y="5" class="st1"/><path d="M11,11H4c-0.6,0-1-0.5-1-1V5c0-0.6,0.5-1,1-1h7c0.6,0,1,0.5,1,1v5C12,10.6,11.6,11,11,11z M4,10h7V5H4V10z" class="st2"/><rect id="rect16_1_" width="7" height="5" x="6" y="7" class="st3"/><path d="M13,13H6c-0.6,0-1-0.5-1-1V7c0-0.6,0.5-1,1-1h7c0.6,0,1,0.5,1,1v5C14,12.6,13.6,13,13,13z M6,12h7V7H6V12z" class="st4"/><path d="M15,16H2c-0.6,0-1-0.5-1-1V2c0-0.6,0.5-1,1-1h13c0.6,0,1,0.5,1,1v13C16,15.6,15.6,16,15,16z M2.5,14.5h12v-12	h-12l0,0V14.5z" class="st0"/></svg>