<svg xmlns="http://www.w3.org/2000/svg" xmlns:svg="http://www.w3.org/2000/svg" xmlns:xlink="http://www.w3.org/1999/xlink" id="svg2" x="0" y="0" version="1.1" viewBox="0 0 17 17" style="enable-background:new 0 0 17 17" xml:space="preserve"><style type="text/css">.st0{fill:#fff}.st1{display:none;fill:#ffdc00}.st2{fill:#ebebeb}.st3{fill:#4a4a4a}.st4{fill:#ebebeb;fill-opacity:.502}.st5{fill:#4a4a4a;fill-opacity:.7412}.st6{fill:#ffdc00}</style><rect id="rect6" width="13" height="13" x="2" y="2" class="st0"/><polygon points="15.1 1 15.1 1 15.2 1 15.3 1 15.3 1.1 15.4 1.1 15.5 1.1 15.5 1.2 15.6 1.2 15.7 1.2 15.7 1.3 15.8 1.3 15.8 1.4 15.8 1.5 15.9 1.5 15.9 1.6 15.9 1.7 16 1.7 16 1.8 16 1.9 16 1.9 16 2 16 15 16 15.1 16 15.1 16 15.2 16 15.3 15.9 15.3 15.9 15.4 15.9 15.5 15.8 15.5 15.8 15.6 15.8 15.7 15.7 15.7 15.7 15.8 15.6 15.8 15.5 15.8 15.5 15.9 15.4 15.9 15.3 15.9 15.3 16 15.2 16 15.1 16 15.1 16 15 16 2 16 1.9 16 1.9 16 1.8 16 1.7 16 1.7 15.9 1.6 15.9 1.5 15.9 1.5 15.8 1.4 15.8 1.3 15.8 1.3 15.7 1.2 15.7 1.2 15.6 1.2 15.5 1.1 15.5 1.1 15.4 1.1 15.3 1 15.3 1 15.2 1 15.1 1 15.1 1 15 1 2 1 1.9 1 1.9 1 1.8 1 1.7 1.1 1.7 1.1 1.6 1.1 1.5 1.2 1.5 1.2 1.4 1.2 1.3 1.3 1.3 1.3 1.2 1.4 1.2 1.5 1.2 1.5 1.1 1.6 1.1 1.7 1.1 1.7 1 1.8 1 1.9 1 1.9 1 2 1 15 1" class="st1"/><rect id="rect12" width="7" height="5" x="4" y="5" class="st2"/><path d="M11,11H4c-0.6,0-1-0.5-1-1V5c0-0.6,0.5-1,1-1h7c0.6,0,1,0.5,1,1v5C12,10.6,11.6,11,11,11z M4,10h7V5H4V10z" class="st3"/><rect id="rect16" width="7" height="5" x="6" y="7" class="st4"/><path d="M13,13H6c-0.6,0-1-0.5-1-1V7c0-0.6,0.5-1,1-1h7c0.6,0,1,0.5,1,1v5C14,12.6,13.6,13,13,13z M6,12h7V7H6V12z" class="st5"/><path d="M15,16H2c-0.6,0-1-0.5-1-1V2c0-0.6,0.5-1,1-1h13c0.6,0,1,0.5,1,1v13C16,15.6,15.6,16,15,16z M2.5,14.5h12v-12	h-12l0,0V14.5z" class="st6"/></svg>