<svg xmlns="http://www.w3.org/2000/svg" xmlns:svg="http://www.w3.org/2000/svg" xmlns:xlink="http://www.w3.org/1999/xlink" id="svg2" x="0" y="0" version="1.1" viewBox="0 0 17 17" style="enable-background:new 0 0 17 17" xml:space="preserve"><style type="text/css">.st0{fill:none}.st1{fill:#ffdc00}.st2{fill:#fff;fill-opacity:.75}.st3,.st4{fill-opacity:.749}.st4{fill:#fff}.st5{fill:#242424}</style><rect id="rect4_1_" width="15" height="15" x="1" y="1" class="st0"/><rect id="rect6_1_" width="13" height="13" x="2" y="2" class="st1"/><path d="M15,16H2c-0.6,0-1-0.5-1-1V2c0-0.6,0.5-1,1-1h13c0.6,0,1,0.5,1,1v13C16,15.6,15.6,16,15,16z M2.5,14.5h12v-12	h-12l0,0V14.5z" class="st1"/><path d="M15,8.5c-1.5,2.1-3.9,3.5-6.5,3.5C5.9,12,3.6,10.6,2,8.5v0C3.6,6.4,5.9,5,8.5,5C11.1,5,13.4,6.4,15,8.5L15,8.5z" class="st2"/><path d="M8.5,10.9c-2.1,0-3.9-0.9-5.1-2.4v0C4.6,7,6.5,6.1,8.5,6.1c2.1,0,3.9,0.9,5.1,2.4v0C12.4,10,10.6,10.9,8.5,10.9	z M15,8.5C13.4,6.4,11.1,5,8.5,5C5.9,5,3.6,6.4,2,8.5v0C3.6,10.6,5.9,12,8.5,12C11.1,12,13.4,10.6,15,8.5L15,8.5z" class="st3"/><circle id="circle16_1_" cx="8.5" cy="8.5" r="2.5" class="st3"/><circle id="circle18_1_" cx="7.5" cy="7.5" r="1" class="st4"/><path id="path20_1_" d="M13,13h1v1h-1V13z M11,13h1v1h-1V13z M9,13h1v1H9V13z M7,13h1	v1H7V13z M5,13h1v1H5V13z M3,13h1v1H3V13z M13,11h1v1h-1V11z M3,11h1v1H3V11z M13,9h1v1h-1V9z M3,9h1v1H3V9z M13,7h1v1h-1V7z M3,7h1	v1H3V7z M13,5h1v1h-1V5z M4,5v1H3V5H4z M3,3h1v1H3V3z M5,3h1v1H5V3z M9,3h1v1H9V3z M7,3h1v1H7V3z M11,3h1v1h-1V3z M13,3h1v1h-1V3z" class="st5"/></svg>