<svg xmlns="http://www.w3.org/2000/svg" xmlns:svg="http://www.w3.org/2000/svg" id="svg14" width="17" height="17" enable-background="new 0 0 20 20" version="1.1" viewBox="0 0 17 17" xml:space="preserve"><metadata id="metadata20"/><style id="style2" type="text/css"/><g style="shape-rendering:auto;enable-background:new" id="g10" transform="translate(-2.00954,-622.48996)"><path id="path6" style="color:#000;font-variant-ligatures:normal;font-variant-position:normal;font-variant-caps:normal;font-variant-numeric:normal;font-variant-alternates:normal;font-feature-settings:normal;text-indent:0;text-decoration:none;text-decoration-line:none;text-decoration-style:solid;text-decoration-color:#000;text-transform:none;text-orientation:mixed;dominant-baseline:auto;white-space:normal;shape-padding:0;isolation:auto;mix-blend-mode:normal;solid-color:#000;fill:none;stroke:#2b2b2b;stroke-width:2;stroke-opacity:.76471001;color-rendering:auto;image-rendering:auto;enable-background:accumulate" d="m 14.242,624.24 a 0.50005,0.50005 0 0 0 -0.49219,0.50781 v 1.0488 c -0.7958,-0.72112 -1.6057,-1.1483 -2.3828,-1.3457 -0.9815,-0.24928 -1.909,-0.15405 -2.6816,0.10351 -1.5454,0.51513 -2.5508,1.6016 -2.5508,1.6016 a 0.50022038,0.50022038 0 1 0 0.73047,0.68359 c 0,0 0.86961,-0.91357 2.1367,-1.3359 1.128,-0.37601 2.5112,-0.41424 4.0488,0.99414 h -1.0508 a 0.50005,0.50005 0 1 0 0,1 h 2.1699 a 0.50005,0.50005 0 0 0 0.4043,-0.11328 0.50005,0.50005 0 0 0 0.0039,-0.002 0.50005,0.50005 0 0 0 0.0332,-0.0312 0.50005,0.50005 0 0 0 0.002,-0.004 0.50005,0.50005 0 0 0 0.03125,-0.0332 0.50005,0.50005 0 0 0 0.0019,-0.004 0.50005,0.50005 0 0 0 0.10352,-0.39453 v -2.1679 a 0.50005,0.50005 0 0 0 -0.50781,-0.50781 z m -8.2012,4.7383 v 7.0234 l 0.52344,-0.61914 2.4453,-2.8926 z m 8.959,0.0195 -3,3.5 3,3.5 z m -8.3633,1.6152 1.5898,1.877 -1.5898,1.8789 z" dominant-baseline="auto"/><path id="path8" style="color:#000;font-variant-ligatures:normal;font-variant-position:normal;font-variant-caps:normal;font-variant-numeric:normal;font-variant-alternates:normal;font-feature-settings:normal;text-indent:0;text-decoration:none;text-decoration-line:none;text-decoration-style:solid;text-decoration-color:#000;text-transform:none;text-orientation:mixed;dominant-baseline:auto;white-space:normal;shape-padding:0;isolation:auto;mix-blend-mode:normal;solid-color:#000;fill:#e6e6e6;color-rendering:auto;image-rendering:auto;enable-background:accumulate" d="m 14.242,624.24 a 0.50005,0.50005 0 0 0 -0.49219,0.50781 v 1.0488 c -0.7958,-0.72112 -1.6057,-1.1483 -2.3828,-1.3457 -0.9815,-0.24928 -1.909,-0.15405 -2.6816,0.10351 -1.5454,0.51513 -2.5508,1.6016 -2.5508,1.6016 a 0.50022038,0.50022038 0 1 0 0.73047,0.68359 c 0,0 0.86961,-0.91357 2.1367,-1.3359 1.128,-0.37601 2.5112,-0.41424 4.0488,0.99414 h -1.0508 a 0.50005,0.50005 0 1 0 0,1 h 2.1699 a 0.50005,0.50005 0 0 0 0.4043,-0.11328 0.50005,0.50005 0 0 0 0.0039,-0.002 0.50005,0.50005 0 0 0 0.0332,-0.0312 0.50005,0.50005 0 0 0 0.002,-0.004 0.50005,0.50005 0 0 0 0.03125,-0.0332 0.50005,0.50005 0 0 0 0.0019,-0.004 0.50005,0.50005 0 0 0 0.10352,-0.39453 v -2.1679 a 0.50005,0.50005 0 0 0 -0.50781,-0.50781 z m -8.2012,4.7383 v 7.0234 l 0.52344,-0.61914 2.4453,-2.8926 z m 8.959,0.0195 -3,3.5 3,3.5 z m -8.3633,1.6152 1.5898,1.877 -1.5898,1.8789 z" dominant-baseline="auto"/></g></svg>