<svg xmlns="http://www.w3.org/2000/svg" xmlns:svg="http://www.w3.org/2000/svg" xmlns:xlink="http://www.w3.org/1999/xlink" id="svg2" x="0" y="0" version="1.1" viewBox="0 0 21 8" style="enable-background:new 0 0 21 8" xml:space="preserve"><style type="text/css">.st0{fill:none}.st1{fill:#ffdc00}.st2{fill:red}</style><rect id="rect4" width="21" height="8" y="0" class="st0"/><rect id="rect6" width="13" height="6" x="4" y="2" class="st1"/><path id="path8" d="M16,8H5c0-3,2.5-5.5,5.5-5.5S16,5,16,8z" class="st2"/><path id="path10" d="M4.5,6.5h12V3.3c0-0.2-0.1-0.4-0.2-0.6c-0.2-0.1-0.4-0.2-0.6-0.2	H5.3c-0.2,0-0.4,0.1-0.6,0.2C4.6,2.9,4.5,3.1,4.5,3.3V8H3c0,0,0-4.1,0-6c0-0.3,0.1-0.5,0.3-0.7C3.5,1.1,3.7,1,4,1h13	c0.3,0,0.5,0.1,0.7,0.3C17.9,1.5,18,1.7,18,2v6H4.5V6.5L4.5,6.5z" class="st1"/></svg>