<svg xmlns="http://www.w3.org/2000/svg" xmlns:svg="http://www.w3.org/2000/svg" xmlns:xlink="http://www.w3.org/1999/xlink" id="svg2" x="0" y="0" version="1.1" viewBox="0 0 21 8" style="enable-background:new 0 0 21 8" xml:space="preserve"><style type="text/css">.st0{fill:none}.st1{fill:#404040}.st2{fill:#ffdc00}</style><rect id="rect4" width="21" height="8" y="0" class="st0"/><rect id="rect6" width="13" height="6" x="4" y="0" class="st1"/><path id="path8" d="M16,0c-0.3,2.8-2.6,5-5.5,5S5.3,2.8,5,0C5,0,16,0,16,0z" class="st2"/><path id="path10" d="M4.5,1.5h12v3.2c0,0.2-0.1,0.4-0.2,0.6c-0.2,0.1-0.4,0.2-0.6,0.2	H5.3c-0.2,0-0.4-0.1-0.6-0.2C4.6,5.1,4.5,4.9,4.5,4.7V0H3c0,0,0,4.1,0,6c0,0.3,0.1,0.5,0.3,0.7C3.5,6.9,3.7,7,4,7h13	c0.3,0,0.5-0.1,0.7-0.3C17.9,6.5,18,6.3,18,6V0H4.5V1.5z" class="st2"/></svg>