<svg xmlns="http://www.w3.org/2000/svg" xmlns:xlink="http://www.w3.org/1999/xlink" width="26" height="26" enable-background="new 0 0 26 26" overflow="visible" viewBox="0 0 26 26" xml:space="preserve"><metadata><variableSets xmlns="http://ns.adobe.com/Variables/1.0/"><variableSet locked="none" varSetName="binding1"><variables/><v:sampleDataSets xmlns="http://ns.adobe.com/GenericCustomNamespace/1.0/" xmlns:v="http://ns.adobe.com/Variables/1.0/"/></variableSet></variableSets><sfw xmlns="http://ns.adobe.com/SaveForWeb/1.0/"><slices/><sliceSourceBounds width="26" height="26" x="387" y="286" bottomLeftOrigin="true"/></sfw></metadata><g id="Layer_1"><path fill="none" d="M26,26H0V0h26V26z"/><radialGradient id="XMLID_1_" cx="9.807" cy="12.746" r="14.649" fx="9.807" fy="12.746" gradientUnits="userSpaceOnUse"><stop offset="0" style="stop-color:#d9d9d9"/><stop offset=".131" style="stop-color:#d4d6d7"/><stop offset=".286" style="stop-color:#c6cfd0"/><stop offset=".453" style="stop-color:#aec2c4"/><stop offset=".628" style="stop-color:#8cb0b4"/><stop offset=".685" style="stop-color:#80a9ae"/><stop offset="1" style="stop-color:#809db3"/></radialGradient><path fill="url(#XMLID_1_)" d="M2.017,15.659c0,0-0.783,3.568-0.396,4.348s6.311,1.094,12.156,0.902 c5.439-0.178,10.425-1.98,11.559-2.793c0.643-0.463-1.789-3.999-2.826-4.705c-2.836-1.93-11.313-2.858-15.342-2.875 C6.321,10.534,2.017,15.659,2.017,15.659z"/><path fill="none" stroke="#000" d="M2.017,15.659c0,0-0.783,3.568-0.396,4.348s6.311,1.094,12.156,0.902 c5.439-0.178,10.425-1.98,11.559-2.793c0.643-0.463-1.789-3.999-2.826-4.705c-2.836-1.93-11.313-2.858-15.342-2.875 C6.321,10.534,2.017,15.659,2.017,15.659z"/><path fill="none" d="M2.017,15.659c1.794,0.348,8.718,0.684,11.503,0.514c2.788-0.171,9.126-1.359,9.659-2.069"/><path fill="none" stroke="#000" stroke-width=".5" d="M2.017,15.659c1.794,0.348,8.718,0.684,11.503,0.514 c2.788-0.171,9.126-1.359,9.659-2.069"/><path fill="#747279" d="M5.497,4.833C4.23,6.089,4.437,7.712,4.673,9.458c0.222,1.615,0.979,3.141,1.375,3.722 c0.338,0.492,2.519,0.479,2.824-0.076c0.374-0.681-0.909-3.071-1.179-4.11C7.494,8.226,7.631,7.14,8.345,6.681 c0.711-0.459-0.164-1.48-0.623-1.9C6.77,3.903,5.497,4.833,5.497,4.833z"/><path fill="none" stroke="#000" d="M5.497,4.833C4.23,6.089,4.437,7.712,4.673,9.458 c0.222,1.615,0.979,3.141,1.375,3.722c0.338,0.492,2.519,0.479,2.824-0.076c0.374-0.681-0.909-3.071-1.179-4.11 C7.494,8.226,7.631,7.14,8.345,6.681c0.711-0.459-0.164-1.48-0.623-1.9C6.77,3.903,5.497,4.833,5.497,4.833z"/><path fill="#CF8D00" d="M19.771,3.601c1.077,0.936,1.265,3.244,0.06,3.837C19.263,7.717,7.271,7.189,7.175,7.175 C5.999,6.993,5.823,6.043,5.819,5.45C5.813,4.794,5.593,3.913,7.155,3.208C7.863,2.889,19.771,3.601,19.771,3.601z"/><path fill="none" stroke="#000" d="M19.771,3.601c1.077,0.936,1.265,3.244,0.06,3.837 C19.263,7.717,7.271,7.189,7.175,7.175C5.999,6.993,5.823,6.043,5.819,5.45C5.813,4.794,5.593,3.913,7.155,3.208 C7.863,2.889,19.771,3.601,19.771,3.601z"/></g></svg>