<svg xmlns="http://www.w3.org/2000/svg" xmlns:svg="http://www.w3.org/2000/svg" id="svg2" x="0" y="0" version="1.1" viewBox="0 0 17 17" xml:space="preserve" style="enable-background:new 0 0 17 17"><metadata id="metadata24"/><style id="style2" type="text/css">.st0{fill:none;stroke:#404040;stroke-width:1.8;stroke-miterlimit:10}.st1{fill:#e6e6e6}.st2,.st3{fill:none;stroke:#404040;stroke-width:3.65;stroke-miterlimit:10}.st3{stroke:#e6e6e6;stroke-width:1.65}</style><polygon id="polygon5" points="10.3 11.5 14.5 15.7 15.8 14.5 11.5 10.3 11.5 10.3 10.9 10.3 10.6 10 10 10.6 10.3 10.9" class="st0" style="fill:none;stroke:#303030;stroke-width:1.79999995;stroke-miterlimit:10;stroke-opacity:1"/><polygon id="polygon7" points="10.3 11.5 14.5 15.7 15.8 14.5 11.5 10.3 11.5 10.3 10.9 10.3 10.6 10 10 10.6 10.3 10.9" class="st1" style="fill:#e6e6e6"/><circle id="circle11" cx="6.5" cy="6.5" r="4.6" class="st2" style="fill:none;stroke:#303030;stroke-width:3.6500001;stroke-miterlimit:10;stroke-opacity:1"/><circle id="circle13" cx="6.5" cy="6.5" r="4.6" class="st3" style="fill:none;stroke:#fff;stroke-width:1.64999998;stroke-miterlimit:10;stroke-opacity:1"/><polygon id="polygon17" points="10.3 11.5 14.5 15.7 15.8 14.5 11.5 10.3 11.5 10.3 10.9 10.3 10.4 9.8 9.8 10.4 10.3 10.9" class="st1" style="fill:#fff;fill-opacity:1"/></svg>