<svg xmlns="http://www.w3.org/2000/svg" xmlns:svg="http://www.w3.org/2000/svg" id="svg4493" width="100%" height="100%" version="1.1" viewBox="0 0 17 17"><metadata id="metadata4490"/><path style="fill:none;fill-opacity:1;stroke:#303030;stroke-width:1.99999988;stroke-linecap:square;stroke-linejoin:miter;stroke-miterlimit:4;stroke-dasharray:none;stroke-opacity:1;paint-order:markers stroke fill" id="path4520" d="M 11 2 L 11 4 L 2 4 L 2 9 L 4 9 L 4 6 L 11 6 L 11 8 L 15 5 L 11 2 z M 13 8 L 13 11 L 6 11 L 6 9 L 2 12 L 6 15 L 6 13 L 15 13 L 15 8 L 13 8 z"/><path style="fill:#fff;fill-opacity:1;stroke:none;stroke-width:1.99999988;stroke-linecap:square;stroke-linejoin:miter;stroke-miterlimit:4;stroke-dasharray:none;stroke-opacity:.54901961;paint-order:markers stroke fill" id="rect4502" d="m 2,4 h 9 V 2 l 4,3 -4,3 V 6 H 4 V 9 H 2 Z"/><path id="path4505" d="M 15,13 H 6 v 2 L 2,12 6,9 v 2 h 7 V 8 h 2 z" style="fill:#fff;fill-opacity:1;stroke:none;stroke-width:1.99999988;stroke-linecap:square;stroke-linejoin:miter;stroke-miterlimit:4;stroke-dasharray:none;stroke-opacity:.54901961;paint-order:markers stroke fill"/></svg>