<svg xmlns="http://www.w3.org/2000/svg" xmlns:svg="http://www.w3.org/2000/svg" xmlns:xlink="http://www.w3.org/1999/xlink" id="svg2" x="0" y="0" version="1.1" viewBox="0 0 40 30" style="enable-background:new 0 0 40 30" xml:space="preserve"><style type="text/css">.st0{fill:none}.st1{fill:#a5a5a5}.st2{fill:#929292}.st3{fill:#ebebeb}.st4{fill:#d9d9d9}.st5{fill:#2b9396}.st6{fill:#79b2b3}.st7{fill:#688586}.st8{fill:#dbeaeb}.st9{fill:#a7c4c5}.st10{fill:#4da4a6}.st11{fill:#007d80}.st12{fill:#207e80}.st13{fill:#607f80}.st14{fill:#407f80}</style><rect id="rect4" width="40" height="30" y="0" class="st0"/><g id="g6"><rect id="rect8" width="38" height="28" x="1" y="1" class="st1"/><path id="path10" d="M40,0v30H0V0H40z M1,1v28h38V1H1z" class="st2"/></g><g id="g12"><rect id="rect14" width="6" height="6" x="2" y="2" class="st3"/><path id="path16" d="M9,9H1V1h8V9z M2,2v6h6V2H2z" class="st4"/></g><rect id="rect18" width="6" height="6" x="12" y="2"/><path id="path20" d="M19,9h-8V1h8V9z M12,2v6h6V2H12z" class="st4"/><rect id="rect22" width="6" height="6" x="22" y="2" class="st5"/><path id="path24" d="M29,9h-8V1h8V9z M22,2v6h6V2H22z" class="st4"/><rect id="rect26" width="6" height="6" x="32" y="2" class="st6"/><path id="path28" d="M39,9h-8V1h8V9z M32,2v6h6V2H32z" class="st4"/><rect id="rect30" width="6" height="6" x="2" y="12" class="st7"/><path id="path32" d="M9,19H1v-8h8V19z M2,12v6h6v-6H2z" class="st4"/><rect id="rect34" width="6" height="6" x="12" y="12" class="st8"/><path id="path36" d="M19,19h-8v-8h8V19z M12,12v6h6v-6H12z" class="st4"/><rect id="rect38" width="6" height="6" x="22" y="12" class="st9"/><path id="path40" d="M29,19h-8v-8h8V19z M22,12v6h6v-6H22z" class="st4"/><rect id="rect42" width="6" height="6" x="32" y="12" class="st10"/><path id="path44" d="M39,19h-8v-8h8V19z M32,12v6h6v-6H32z" class="st4"/><rect id="rect46" width="6" height="6" x="2" y="22" class="st11"/><path id="path48" d="M9,29H1v-8h8V29z M2,22v6h6v-6H2z" class="st4"/><rect id="rect50" width="6" height="6" x="12" y="22" class="st12"/><path id="path52" d="M19,29h-8v-8h8V29z M12,22v6h6v-6H12z" class="st4"/><rect id="rect54" width="6" height="6" x="22" y="22" class="st13"/><path id="path56" d="M29,29h-8v-8h8V29z M22,22v6h6v-6H22z" class="st4"/><rect id="rect58" width="6" height="6" x="32" y="22" class="st14"/><path id="path60" d="M39,29h-8v-8h8V29z M32,22v6h6v-6H32z" class="st4"/></svg>