<svg xmlns="http://www.w3.org/2000/svg" xmlns:svg="http://www.w3.org/2000/svg" xmlns:xlink="http://www.w3.org/1999/xlink" id="svg4" x="0" y="0" version="1.1" viewBox="0 0 20 20" style="enable-background:new 0 0 20 20" xml:space="preserve"><style type="text/css">.st0{fill:#e6e6e6;fill-opacity:.2915}.st1{stroke:#2c2c2c;stroke-width:2;stroke-linejoin:round;stroke-miterlimit:1.4142;stroke-opacity:.7647}.st1,.st2{fill:#e6e6e6}</style><rect id="rect819" width="20" height="20" y="0" class="st0"/><path id="path2" d="M5,5h10v10H5V5z M8,14v-2H6v2H8z M11,14v-2H9v2H11z M14,12h-2v2h2	V12z M9,9v2h2V9H9z M12,9v2h2V9H12z M6,11h2V9H6V11z M9,6v2h2V6H9z M12,6v2h2V6H12z M8,8V6H6v2H8z" class="st1"/><path id="path814" d="M5,5h10v10H5V5z M8,14v-2H6v2H8z M11,14v-2H9v2H11z M14,12h-2v2	h2V12z M9,9v2h2V9H9z M12,9v2h2V9H12z M6,11h2V9H6V11z M9,6v2h2V6H9z M12,6v2h2V6H12z M8,8V6H6v2H8z" class="st2"/></svg>