<svg xmlns="http://www.w3.org/2000/svg" xmlns:svg="http://www.w3.org/2000/svg" id="svg4" width="25" height="20" version="1.1" viewBox="0 0 25 20" xml:space="preserve" style="clip-rule:evenodd;fill-rule:evenodd;stroke-linejoin:round;stroke-miterlimit:1.41420996"><metadata id="metadata10"/><defs id="defs8"><marker style="overflow:visible" id="marker1098" orient="auto" refX="0" refY="0"><path transform="matrix(0.8,0,0,0.8,10,0)" style="fill:#000;fill-opacity:1;fill-rule:evenodd;stroke:#000;stroke-width:1.00000003pt;stroke-opacity:1" id="path1096" d="M 0,0 5,-5 -12.5,0 5,5 Z"/></marker><marker style="overflow:visible" id="Arrow1Lstart" orient="auto" refX="0" refY="0"><path transform="matrix(0.8,0,0,0.8,10,0)" style="fill:#000;fill-opacity:1;fill-rule:evenodd;stroke:#000;stroke-width:1.00000003pt;stroke-opacity:1" id="path820" d="M 0,0 5,-5 -12.5,0 5,5 Z"/></marker></defs><rect style="fill:#e6e6e6;fill-opacity:.29019608;stroke-width:1.09108937" id="rect855" width="25" height="20" x="0" y="0"/><g id="g1244" transform="translate(2.5000178)"><path style="clip-rule:evenodd;fill:#e6e6e6;fill-opacity:1;fill-rule:evenodd;stroke:#2c2c2c;stroke-width:2;stroke-linejoin:round;stroke-miterlimit:1.41420996;stroke-dasharray:none;stroke-opacity:.76470588;paint-order:stroke fill markers" id="path1236" d="m 2.5,9.99 c 0,0 2.81,-4.49 7.5,-4.49 4.69,0 7.5,4.49 7.5,4.49 0,0 -2.799,4.51 -7.5,4.51 -4.701,0 -7.5,-4.51 -7.5,-4.51 z"/><path id="path1238" d="m 2.5,9.99 c 0,0 2.81,-4.49 7.5,-4.49 4.69,0 7.5,4.49 7.5,4.49 0,0 -2.799,4.51 -7.5,4.51 -4.701,0 -7.5,-4.51 -7.5,-4.51 z" style="clip-rule:evenodd;fill:#e6e6e6;fill-opacity:1;fill-rule:evenodd;stroke:none;stroke-width:2;stroke-linejoin:round;stroke-miterlimit:1.41420996;stroke-dasharray:none;stroke-opacity:.76470588;paint-order:stroke fill markers"/><ellipse id="ellipse1240" cx="10" cy="10" rx="3.5" ry="3.621" style="fill:#3a3a3a;fill-opacity:1"/><circle style="fill:#e6e6e6;fill-opacity:1" id="circle1242" cx="9" cy="9" r="1.5"/></g><path id="path1434" d="M 3,2 V 3 H 5 V 2 Z M 6,3 H 8 V 2 H 6 Z m 3,0 h 2 V 2 H 9 Z m 3,0 h 2 V 2 h -2 z m 3,0 h 2 V 2 h -2 z m 3,0 h 2 V 2 h -2 z m 3,1 h 1 V 2 H 21 Z M 3,6 H 4 V 4 H 3 Z m 18,1 h 1 V 5 H 21 Z M 3,9 H 4 V 7 H 3 Z m 18,1 h 1 V 8 H 21 Z M 3,12 H 4 V 9.9999996 H 3 Z m 18,1 h 1 V 11 H 21 Z M 3,15 H 4 V 13 H 3 Z m 18,1 h 1 V 14 H 21 Z M 3,18 H 4 V 16 H 3 Z m 2,0 H 7 V 17 H 5 Z m 3,0 h 2 V 17 H 8 Z m 3,0 h 2 v -1 h -2 z m 3,0 h 2 v -1 h -2 z m 3,0 h 2 v -1 h -2 z m 3,0 h 2 v -1 h -2 z" style="fill-rule:evenodd;fill:#b2b2b2;fill-opacity:1"/></svg>