<svg xmlns="http://www.w3.org/2000/svg" xmlns:xlink="http://www.w3.org/1999/xlink" width="37" height="17" enable-background="new 0 0 37 17" overflow="visible" viewBox="0 0 37 17" xml:space="preserve"><metadata><variableSets xmlns="http://ns.adobe.com/Variables/1.0/"><variableSet locked="none" varSetName="binding1"><variables/><v:sampleDataSets xmlns="http://ns.adobe.com/GenericCustomNamespace/1.0/" xmlns:v="http://ns.adobe.com/Variables/1.0/"/></variableSet></variableSets><sfw xmlns="http://ns.adobe.com/SaveForWeb/1.0/"><slices/><sliceSourceBounds width="37" height="17" x="382.083" y="290.469" bottomLeftOrigin="true"/></sfw></metadata><g id="Layer_1"><path fill="none" d="M37,17H0V0h37V17z"/><g><linearGradient id="XMLID_1_" x1="-193.168" x2="-190.47" y1="59.251" y2="59.982" gradientTransform="matrix(0.696 0.718 -0.718 0.696 194.7449 106.3315)" gradientUnits="userSpaceOnUse"><stop offset="0" style="stop-color:silver"/><stop offset=".117" style="stop-color:#b8b8b8"/><stop offset=".305" style="stop-color:#a1a1a1"/><stop offset=".539" style="stop-color:#7a7a7a"/><stop offset=".809" style="stop-color:#464646"/><stop offset=".888" style="stop-color:#363636"/><stop offset="1" style="stop-color:#666"/></linearGradient><path fill="url(#XMLID_1_)" stroke="#000" stroke-linecap="round" stroke-linejoin="round" stroke-width=".8" d="M22.87,2.446L10.213,9.214l2.078,5.45L26.174,9.43"/><linearGradient id="XMLID_2_" x1="-190.817" x2="-188.036" y1="51.645" y2="51.74" gradientTransform="matrix(0.696 0.718 -0.718 0.696 194.7449 106.3315)" gradientUnits="userSpaceOnUse"><stop offset="0" style="stop-color:#fff"/><stop offset=".075" style="stop-color:#f6f6f6"/><stop offset=".196" style="stop-color:#dfdfdf"/><stop offset=".347" style="stop-color:#b9b9b9"/><stop offset=".522" style="stop-color:#848484"/><stop offset=".715" style="stop-color:#414141"/><stop offset=".781" style="stop-color:#292929"/><stop offset=".869" style="stop-color:#2c2c2c"/><stop offset=".935" style="stop-color:#353535"/><stop offset=".995" style="stop-color:#464646"/><stop offset="1" style="stop-color:#474747"/></linearGradient><path fill="url(#XMLID_2_)" stroke="#000" stroke-linecap="round" stroke-linejoin="round" stroke-width=".8" d="M26.174,9.43c-1.255,0.594-3.013-0.488-3.925-2.416c-0.912-1.929-0.635-3.973,0.621-4.567l5.509,1.962L26.174,9.43z"/><linearGradient id="XMLID_3_" x1="-192.042" x2="-186.849" y1="49.55" y2="49.55" gradientTransform="matrix(0.696 0.718 -0.718 0.696 194.7449 106.3315)" gradientUnits="userSpaceOnUse"><stop offset="0" style="stop-color:#c8c8c8"/><stop offset=".121" style="stop-color:#9d9d9d"/><stop offset=".252" style="stop-color:#767676"/><stop offset=".382" style="stop-color:#585858"/><stop offset=".509" style="stop-color:#424242"/><stop offset=".63" style="stop-color:#353535"/><stop offset=".742" style="stop-color:#313131"/><stop offset="1" style="stop-color:#757575"/></linearGradient><path fill="url(#XMLID_3_)" stroke="#000" stroke-linecap="round" stroke-linejoin="round" stroke-width=".8" d="M28.382,7.378c-0.927,0.385-2.156-0.462-2.745-1.886c-0.591-1.427-0.317-2.895,0.609-3.277c0.927-0.385,2.156,0.461,2.746,1.886 C29.582,5.528,29.31,6.995,28.382,7.378z"/><path fill="#E3E3E3" stroke="#000" stroke-linecap="round" stroke-linejoin="round" stroke-width=".8" d="M29.649,6.779c-0.927,0.384-2.156-0.461-2.746-1.886c-0.59-1.427-0.316-2.896,0.609-3.277c0.926-0.386,2.156,0.462,2.746,1.887 C30.849,4.929,30.577,6.396,29.649,6.779z"/><path fill="#D9FDFF" stroke="#000" stroke-linecap="round" stroke-linejoin="round" stroke-width=".8" d="M9.847,14.63l2.555,0.411"/><path fill="#BABABA" stroke="#000" stroke-linecap="round" stroke-linejoin="round" stroke-width=".8" d="M12.317,14.632l-1.6-5.727L8.507,8.479l1.256,5.742L12.317,14.632z"/><linearGradient id="XMLID_4_" x1="-195.541" x2="-191.283" y1="57.577" y2="58.996" gradientTransform="matrix(0.696 0.718 -0.718 0.696 194.7449 106.3315)" gradientUnits="userSpaceOnUse"><stop offset="0" style="stop-color:#dedede"/><stop offset=".573" style="stop-color:#dedede"/><stop offset="1" style="stop-color:#232323"/></linearGradient><path fill="url(#XMLID_4_)" stroke="#000" stroke-linecap="round" stroke-linejoin="round" stroke-width=".45" d="M19.877,4.713L15.539,6.97l1.113,4.311L20.95,9.26L19.877,4.713z"/></g></g></svg>