<svg xmlns="http://www.w3.org/2000/svg" xmlns:svg="http://www.w3.org/2000/svg" xmlns:xlink="http://www.w3.org/1999/xlink" id="svg2" x="0" y="0" version="1.1" viewBox="0 0 21 17" style="enable-background:new 0 0 21 17" xml:space="preserve"><style type="text/css">.st0{fill:none}.st1{fill:#f0ff00}.st2{fill:#4b4b4b}.st3{fill:#fff}.st4{fill:#404040}</style><g><rect id="rect4" width="21" height="17" y="0" class="st0"/><g id="g6"><rect id="rect8" width="11" height="5" x="5" y="9" class="st1"/><path id="path10" d="M17,15H4V8h13V15z M5,9v5h11V9H5z" class="st2"/></g><g id="g12"><rect id="rect14" width="11" height="1" x="5" y="7" class="st3"/><path id="path16" d="M17,9H4V6h13V9z M5,7v1h11V7H5z" class="st2"/><path id="path18" d="M6,7h1v1H6V7z M8,7h1v1H8V7z M10,7h1v1h-1V7z M12,7h1v1h-1V7z M15,7v1h-1V7H15z" class="st4"/></g><g id="g20"><path id="path22" d="M16.3,4.2L5.4,2.4L5.2,3.9L16,5.7L16.3,4.2z" class="st3"/><path id="path24" d="M17.4,3.4l-0.6,3.5L4,4.7l0.6-3.4L17.4,3.4z M5.2,3.9L16,5.7 l0.3-1.5L5.4,2.4L5.2,3.9L5.2,3.9z" class="st2"/><path id="path26" d="M7.4,2.7l1,0.2L8.1,4.4l-1-0.2L7.4,2.7L7.4,2.7z M10.4,3.2 l1,0.2l-0.3,1.5l-1-0.2L10.4,3.2z M14.3,3.9l-0.3,1.5l-1-0.2l0.3-1.5C13.3,3.7,14.3,3.9,14.3,3.9z" class="st4"/></g></g></svg>