<svg xmlns="http://www.w3.org/2000/svg" xmlns:xlink="http://www.w3.org/1999/xlink" id="レイヤー_1" width="24" height="24" x="0" y="0" version="1.1" viewBox="0 0 24 24" style="enable-background:new 0 0 24 24" xml:space="preserve"><style type="text/css">.st0,.st1{stroke:#000}.st0{fill:#fff;stroke-miterlimit:10}.st1{stroke-width:3;stroke-linecap:round}.st1,.st2,.st3,.st4{fill:none;stroke-miterlimit:10}.st2{stroke:#fff;stroke-linecap:round}.st3,.st4{stroke:#000}.st3{stroke-linecap:round}.st4{stroke-width:2;stroke-linejoin:round}.st5{fill:#fff}.st6{display:none}.st7,.st8{display:inline}.st7{fill:none;stroke:#000;stroke-width:2;stroke-linejoin:round;stroke-miterlimit:10}.st8{fill:#fff}</style><path d="M12.5,7c0-3-2.5-5.5-5.5-5.5S1.5,4,1.5,7c0,3.5,3.6,4.5,3.6,7.5c0,1.5,0.9,2,1.9,2c1.1,0,1.9-0.5,1.9-2	C8.9,11.5,12.5,10.5,12.5,7z" class="st0"/><g><line x1="4.5" x2="9.5" y1="13.5" y2="13.5" class="st1"/><line x1="4.5" x2="9.5" y1="13.5" y2="13.5" class="st2"/></g><rect width="3" height="5" x="5.5" y="7.5" class="st3"/><line x1="15.5" x2="15.5" y1="10.5" y2="20.5" class="st1"/><line x1="10.5" x2="19.5" y1="15.5" y2="15.5" class="st1"/><polygon points="17.5 20 13.5 20 15.5 22.5" class="st4"/><polygon points="19.8 13.5 19.8 17.5 22.3 15.5" class="st4"/><polygon points="13.5 11 17.5 11 15.5 8.5" class="st4"/><polygon points="11 17.5 11 13.5 8.5 15.5" class="st4"/><polygon points="19.8 13.5 19.8 17.5 22.3 15.5" class="st5"/><polygon points="13.5 11 17.5 11 15.5 8.5" class="st5"/><polygon points="11 17.5 11 13.5 8.5 15.5" class="st5"/><polygon points="17.5 20 13.5 20 15.5 22.5" class="st5"/><line x1="15.5" x2="15.5" y1="10.5" y2="20.5" class="st2"/><line x1="10.5" x2="20.5" y1="15.5" y2="15.5" class="st2"/><g class="st6"><polygon points="13.7 9 16.1 9 15.5 12.6" class="st7"/><polygon points="13.7 9 16.1 9 15.5 12.6" class="st8"/></g><g class="st6"><polygon points="17.3 22 14.9 22 15.5 18.5" class="st7"/><polygon points="17.3 22 14.9 22 15.5 18.5" class="st8"/></g><g class="st6"><polygon points="20.2 10.7 21.4 12.8 18.1 14" class="st7"/><polygon points="20.2 10.7 21.4 12.8 18.1 14" class="st8"/></g><g class="st6"><polygon points="10.8 20.3 9.6 18.2 13 17" class="st7"/><polygon points="10.8 20.3 9.6 18.2 13 17" class="st8"/></g><g class="st6"><polygon points="9 13.8 10.2 11.8 13 14" class="st7"/><polygon points="9 13.8 10.2 11.8 13 14" class="st8"/></g><g class="st6"><polygon points="22 17.2 20.8 19.3 18.1 17" class="st7"/><polygon points="22 17.2 20.8 19.3 18.1 17" class="st8"/></g></svg>