<svg xmlns="http://www.w3.org/2000/svg" xmlns:svg="http://www.w3.org/2000/svg" id="svg2" x="0" y="0" version="1.1" viewBox="0 0 17 17" xml:space="preserve" style="enable-background:new 0 0 17 17"><metadata id="metadata11"/><style id="style2" type="text/css">.st1{fill:#e6e6e6}.st2{fill:#404040}</style><path id="path820" d="m 11,4 1,2 h 2 c 0.6,0 1,0.4 1,1 v 6 c 0,0.6 -0.4,1 -1,1 H 3 C 2.4,14 2,13.6 2,13 V 7 C 2,6.4 2.4001825,6.0147992 3,6 H 5 L 6,4 Z" class="st1" style="fill:#e6e6e6;stroke:#303030;stroke-opacity:1;stroke-width:2;stroke-miterlimit:4;stroke-dasharray:none"/><path style="fill:#fbfbfb;fill-opacity:1" id="path8" d="m 11,4 1,2 h 2 c 0.6,0 1,0.4 1,1 v 6 c 0,0.6 -0.4,1 -1,1 H 3 C 2.4,14 2,13.6 2,13 V 7 C 2,6.4 2.4001825,6.0147992 3,6 H 5 L 6,4 Z" class="st1"/><circle style="fill:#303030;stroke-width:1;fill-opacity:1" id="circle10" cx="8.5" cy="9.5" r="2.5" class="st2"/></svg>