<svg xmlns="http://www.w3.org/2000/svg" xmlns:svg="http://www.w3.org/2000/svg" xmlns:xlink="http://www.w3.org/1999/xlink" id="svg2" x="0" y="0" version="1.1" viewBox="0 0 17 17" style="enable-background:new 0 0 17 17" xml:space="preserve"><style type="text/css">.st0{fill:#fff}.st1{fill:#132d5c}</style><rect id="rect7" width="11" height="10" x="4" y="2" class="st0"/><g id="g9"><rect id="rect11" width="2" height="13" x="2" y="2" class="st1"/><path id="path13" d="M4,11h2V9h2v2h6V9h-2v2h-2V9h2V7h2V5h-2v2h-2V5h2V3h2h-4v2H8V3H6v2H4V2h11 v10H4V11z M4,7h2v2H4V7z M8,7h2v2H8V7z M6,5h2v2H6V5z"/></g></svg>