<svg xmlns="http://www.w3.org/2000/svg" xmlns:xlink="http://www.w3.org/1999/xlink" width="26" height="26" enable-background="new 0 0 26 26" overflow="visible" viewBox="0 0 26 26" xml:space="preserve"><metadata><variableSets xmlns="http://ns.adobe.com/Variables/1.0/"><variableSet locked="none" varSetName="binding1"><variables/><v:sampleDataSets xmlns="http://ns.adobe.com/GenericCustomNamespace/1.0/" xmlns:v="http://ns.adobe.com/Variables/1.0/"/></variableSet></variableSets><sfw xmlns="http://ns.adobe.com/SaveForWeb/1.0/"><slices/><sliceSourceBounds width="26" height="26" x="387" y="286" bottomLeftOrigin="true"/></sfw></metadata><g id="Layer_1"><path fill="none" d="M26,26H0V0h26V26z"/><path fill="#62A200" d="M5.53,24.045c0.711-0.987,1.09-0.891,1.449-1.107c0.295-0.18,1.852-1.684,2.198-2.18 l3.577-5.133c0.349-0.496-0.276-0.352-0.705-0.65l-1.043-0.727c-0.429-0.301-0.508-0.936-0.854-0.438l-3.579,5.132 c-0.347,0.498-1.223,2.479-1.286,2.817c-0.068,0.382,0.202,0.683-0.537,1.742"/><path fill="none" stroke="#000" stroke-linecap="round" stroke-width=".779" d="M5.53,24.045 c0.711-0.987,1.09-0.891,1.449-1.107c0.295-0.18,1.852-1.684,2.198-2.18l6.914-9.916c0.347-0.497,0.28-1.148-0.15-1.448 l-1.043-0.728c-0.429-0.299-1.063-0.137-1.411,0.36l-6.914,9.915c-0.347,0.498-1.223,2.479-1.286,2.817 c-0.068,0.382,0.202,0.683-0.537,1.742"/><path fill="#CFC251" stroke="#000" stroke-linejoin="round" stroke-width=".779" d="M20.255,2.096 c-0.997-0.697-2.371-0.452-3.068,0.547l-3.982,5.711l3.616,2.521l3.982-5.711C21.5,4.167,21.255,2.792,20.255,2.096z"/><path fill="#CFC251" stroke="#000" stroke-linejoin="round" stroke-width=".779" d="M17.791,12.189 l-6.156-4.292l1.945-2.79l6.156,4.293L17.791,12.189z"/></g></svg>