<svg xmlns="http://www.w3.org/2000/svg" xmlns:xlink="http://www.w3.org/1999/xlink" width="24" height="19" enable-background="new 0 0 24 19" overflow="visible" viewBox="0 0 24 19" xml:space="preserve"><metadata><variableSets xmlns="http://ns.adobe.com/Variables/1.0/"><variableSet locked="none" varSetName="binding1"><variables/><v:sampleDataSets xmlns="http://ns.adobe.com/GenericCustomNamespace/1.0/" xmlns:v="http://ns.adobe.com/Variables/1.0/"/></variableSet></variableSets><sfw xmlns="http://ns.adobe.com/SaveForWeb/1.0/"><slices/><sliceSourceBounds width="24" height="19" x="388.954" y="289.921" bottomLeftOrigin="true"/></sfw></metadata><g id="Layer_1"><path fill="none" d="M24,19H0V0h24V19z"/><path fill="#FFF" stroke="#C8D200" stroke-linecap="round" stroke-linejoin="round" stroke-width="2" d="M20,15.456c0,1.1-0.899,2-2,2H6c-1.1,0-2-0.9-2-2v-12c0-1.1,0.9-2,2-2h12c1.101,0,2,0.9,2,2V15.456z"/><path fill="#E6E6E6" stroke="#404040" stroke-linecap="round" stroke-linejoin="round" stroke-width=".8" d="M8.546,6.502h-2v-2h2V6.502z"/><path fill="#E6E6E6" stroke="#404040" stroke-linecap="round" stroke-linejoin="round" stroke-width=".8" d="M8.546,10.502h-2v-2h2V10.502z"/><path fill="#E6E6E6" stroke="#404040" stroke-linecap="round" stroke-linejoin="round" stroke-width=".8" d="M8.546,14.502h-2v-2h2V14.502z"/><path fill="#E6E6E6" stroke="#404040" stroke-linecap="round" stroke-linejoin="round" stroke-width=".8" d="M17.546,6.502h-2v-2h2V6.502z"/><path fill="#E6E6E6" stroke="#404040" stroke-linecap="round" stroke-linejoin="round" stroke-width=".8" d="M17.546,10.502h-2v-2h2V10.502z"/><path fill="#E6E6E6" stroke="#404040" stroke-linecap="round" stroke-linejoin="round" stroke-width=".8" d="M17.546,14.502h-2v-2h2V14.502z"/><path fill="#E6E6E6" stroke="#404040" stroke-linecap="round" stroke-linejoin="round" stroke-width=".8" d="M13.065,6.502h-2v-2h2V6.502z"/><path fill="#E6E6E6" stroke="#404040" stroke-linecap="round" stroke-linejoin="round" stroke-width=".8" d="M13.065,10.502h-2v-2h2V10.502z"/><path fill="#E6E6E6" stroke="#404040" stroke-linecap="round" stroke-linejoin="round" stroke-width=".8" d="M13.065,14.502h-2v-2h2V14.502z"/></g></svg>