<svg xmlns="http://www.w3.org/2000/svg" xmlns:xlink="http://www.w3.org/1999/xlink" width="16" height="16" version="1.1" xml:space="preserve" style="fill-rule:evenodd;clip-rule:evenodd;stroke-linejoin:round;stroke-miterlimit:2"><g transform="matrix(1,0,0,1,-150,-410)"><g id="insert_multiple_keys" transform="matrix(1,0,0,1,40,0)"><g id="bg" transform="matrix(1,0,0,1,0,20)"><rect width="16" height="16" x="110" y="390" style="fill-opacity:0"/></g><g><path d="M11,5L17,11L11,17L5,11L11,5Z" style="fill-opacity:.25" transform="matrix(0.666667,0,0,0.666667,112.667,407.667)"/><path d="M11,5L17,11L11,17L5,11L11,5ZM6.886,11L11,15.114L15.114,11L11,6.886L6.886,11Z" transform="matrix(0.666667,0,0,0.666667,112.667,407.667)"/></g><g><path d="M11,5L17,11L11,17L5,11L11,5Z" style="fill-opacity:.25" transform="matrix(0.666667,0,0,0.666668,106.667,413.667)"/><path d="M11,5L17,11L11,17L5,11L11,5ZM6.886,11L11,15.114L15.114,11L11,6.886L6.886,11Z" transform="matrix(0.666667,0,0,0.666668,106.667,413.667)"/></g></g></g></svg>