<svg xmlns="http://www.w3.org/2000/svg" xmlns:xlink="http://www.w3.org/1999/xlink" width="100%" height="100%" version="1.1" viewBox="0 0 16 16" xml:space="preserve" style="fill-rule:evenodd;clip-rule:evenodd;stroke-linejoin:round;stroke-miterlimit:2"><g id="merge_levels"><rect id="bg" width="16" height="16" x="0" y="0" style="fill:#878787;fill-opacity:0"/><path d="M8,10l-1,0l-0,3l1,0l-0,-3Zm-0,-4l-1,0l-0,3l1,0l-0,-3Zm-0,-4l-1,0l-0,3l1,0l-0,-3Z" style="fill-opacity:.5"/><path d="M1,1l-0,13l13,0l-0,-3l1,0l0,4l-15,-0l-0,-4l1,0l-0,-7l-1,0l0,-4l11.876,0l3.124,3.121l-0,0.879l-1,0l-0,-1l-2,0l-0,-2l-11,0Z"/><path d="M-0,7.999l-0.01,0l-0.035,-0.999l4.045,0l-0,-2l2.5,2.5l-2.5,2.5l-0,-2l-4,-0.001Z"/><path d="M14.955,7.999l0.01,0l0.035,-0.999l-4.045,0l-0,-2l-2.5,2.5l2.5,2.5l-0,-2l4,-0.001Z"/></g></svg>