<svg xmlns="http://www.w3.org/2000/svg" xmlns:xlink="http://www.w3.org/1999/xlink" width="16" height="16" version="1.1" xml:space="preserve" style="fill-rule:evenodd;clip-rule:evenodd;stroke-linejoin:round;stroke-miterlimit:2"><g transform="matrix(1,0,0,1,-50,-210)"><g id="move_to_back"><g id="bg" transform="matrix(0.110345,0,0,0.121212,33.7793,191.091)"><rect width="145" height="132" x="147" y="156" style="fill:#878787;fill-opacity:0"/></g><g><path d="M19,13L13,13L13,19L19,19L19,13ZM9,3L3,3L3,9L9,9L9,3Z" style="fill-opacity:.5" transform="matrix(1,0,0,1,47,207)"/></g><g><path d="M33,67L33,73L29,73L29,77L23,77L23,71L27,71L27,67L33,67Z" transform="matrix(1,0,0,1,30,146)"/></g></g></g></svg>