<svg xmlns="http://www.w3.org/2000/svg" xmlns:xlink="http://www.w3.org/1999/xlink" width="16" height="16" version="1.1" xml:space="preserve" style="fill-rule:evenodd;clip-rule:evenodd;stroke-linejoin:round;stroke-miterlimit:2"><g transform="matrix(1,0,0,1,-150,-210)"><g id="new_raster_level" transform="matrix(1,0,0,1,40,-20)"><g id="bg" transform="matrix(0.110345,0,0,0.121212,93.7793,211.091)"><rect width="145" height="132" x="147" y="156" style="fill:#878787;fill-opacity:0"/></g><g><g><path d="M120,231.5L123.5,235L120,235L120,231.5Z" transform="matrix(1,0,0,1,1,0)"/></g><path d="M125,235C125,234.735 124.895,234.48 124.707,234.293L121.707,231.293C121.52,231.105 121.265,231 121,231L112,231C111.448,231 111,231.448 111,232L111,244C111,244.552 111.448,245 112,245L124,245C124.552,245 125,244.552 125,244L125,235ZM124,235L121,232L112,232L112,244L124,244L124,235Z"/></g><g transform="matrix(1,0,0,0.8,-40,63.6)"><ellipse cx="156" cy="216.75" rx="1" ry="1.25"/></g><g><path d="M160,220L162.8,223L157.2,223L160,220Z" transform="matrix(1.25,0,0,1.66667,-80.5,-128.667)"/></g><g><path d="M159.6,220L161.2,223L158,223L159.6,220Z" transform="matrix(1.25,0,0,1,-84.5,20)"/></g></g></g></svg>