<svg xmlns="http://www.w3.org/2000/svg" xmlns:svg="http://www.w3.org/2000/svg" width="16" height="16" version="1.1" xml:space="preserve" style="fill-rule:evenodd;clip-rule:evenodd;stroke-linejoin:round;stroke-miterlimit:2" id="svg20"><g id="bg" transform="translate(-110,-390)" style="clip-rule:evenodd;fill-rule:evenodd;stroke-linejoin:round;stroke-miterlimit:2"><rect id="rect2" width="16" height="16" x="110" y="390" style="fill-opacity:0"/></g><path id="path10088" d="M 11.5,16 9,13 V 7 h 5 v 6 z" style="clip-rule:evenodd;fill-rule:evenodd;stroke-width:.640749;stroke-linejoin:round;stroke-miterlimit:2"/><g id="g12307" style="clip-rule:evenodd;fill-rule:evenodd;stroke-linejoin:round;stroke-miterlimit:2" transform="translate(2,2.000002)"><g id="bg-3" transform="translate(-112,-392)" style="clip-rule:evenodd;fill-rule:evenodd;stroke-linejoin:round;stroke-miterlimit:2"><rect id="rect2-5" width="16" height="16" x="110" y="390" style="fill-opacity:0"/></g><g id="g10" transform="translate(-112,-512)" style="clip-rule:evenodd;fill-rule:evenodd;stroke-linejoin:round;stroke-miterlimit:2"><path id="path8" d="M 126,517.086 C 125.841,517.03 125.672,517 125.5,517 H 125 v -3 c 0,-0.552 -0.448,-1 -1,-1 -2.577,0 -9.423,0 -12,0 -0.552,0 -1,0.448 -1,1 0,1.916 0,6.084 0,8 0,0.552 0.448,1 1,1 h 5 v 2.5 c 0,0.175 0.03,0.344 0.085,0.5 H 110 v -16 h 16 z M 118,523 v 2.5 z m -5,1 h -2 v 1 h 2 z m 3,0 h -2 v 1 h 2 z m 0,-13 h -2 v 1 h 2 z m 3,0 h -2 v 1 h 2 z m -6,0 h -2 v 1 h 2 z m 9,0 h -2 v 1 h 2 z m 3,0 h -2 v 1 h 2 z"/></g></g><path style="fill:#000;fill-opacity:1;fill-rule:evenodd" id="path254" d="M 5,8 2.7499999,9.2990381 0.5,10.598076 l 0,-2.5980761 0,-2.5980761 2.2500001,1.2990381 z" transform="matrix(-1.1111112,0,0,1.5396007,7.5555556,-4.3168052)"/></svg>