<svg xmlns="http://www.w3.org/2000/svg" xmlns:xlink="http://www.w3.org/1999/xlink" width="16" height="16" version="1.1" xml:space="preserve" style="fill-rule:evenodd;clip-rule:evenodd;stroke-linejoin:round;stroke-miterlimit:2"><g transform="matrix(1,0,0,1,-130,-110)"><g id="preview_white" transform="matrix(1,0,0,1,20,20)"><g id="bg" transform="matrix(0.110345,0,0,0.121212,93.7793,71.0909)"><rect width="145" height="132" x="147" y="156" style="fill:#878787;fill-opacity:0"/></g><g transform="matrix(0.574427,0,0,0.574427,5.98665,57.7901)"><rect width="14" height="14" x="188" y="63" style="fill:#fcfcfc"/></g><g><path d="M18,6.021C18,4.917 17.104,4.021 16,4.021L6,4.021C4.896,4.021 4,4.917 4,6.021L4,16.021C4,17.125 4.896,18.021 6,18.021L16,18.021C17.104,18.021 18,17.125 18,16.021L18,6.021ZM16,6.021L6,6.021L6,16.021L16,16.021L16,6.021Z" transform="matrix(1,0,0,1,107,86.979)"/></g></g></g></svg>