<svg xmlns="http://www.w3.org/2000/svg" xmlns:xlink="http://www.w3.org/1999/xlink" width="16" height="16" version="1.1" xml:space="preserve" style="fill-rule:evenodd;clip-rule:evenodd;stroke-linejoin:round;stroke-miterlimit:2"><g transform="matrix(1,0,0,1,-110,-50)"><g id="redo"><g id="bg" transform="matrix(0.110345,0,0,0.121212,93.7793,31.0909)"><rect width="145" height="132" x="147" y="156" style="fill:#878787;fill-opacity:0"/></g><g><path d="M114,31.47C114.001,31.489 114.001,31.509 114,31.528L114,32.999C114,32.999 116.35,33 118.5,33L119.5,33C122.536,33 125,35.464 125,38.5C125,41.536 122.536,44 119.5,44L116.5,44C116.224,44 116,43.776 116,43.5C116,43.224 116.224,43 116.5,43L119.5,43C121.984,43 124,40.984 124,38.5C124,36.016 121.984,34 119.5,34L118.5,34L117,34L117,34.001C115.724,34.001 114.695,34.001 114,34.002L114,35.471C114.001,35.491 114.001,35.512 114,35.532L114,36.682L113.255,35.937C113.216,35.915 113.179,35.887 113.146,35.854L111.146,33.854C111.113,33.821 111.085,33.785 111.064,33.746L110.818,33.5L111.062,33.256C111.084,33.216 111.112,33.179 111.146,33.146L113.146,31.145C113.18,31.111 113.217,31.083 113.257,31.061L114,30.318L114,31.47Z" transform="matrix(-1,0,0,1,236,20)"/></g></g></g></svg>