<svg xmlns="http://www.w3.org/2000/svg" xmlns:xlink="http://www.w3.org/1999/xlink" width="100%" height="100%" version="1.1" viewBox="0 0 16 16" xml:space="preserve" style="fill-rule:evenodd;clip-rule:evenodd;stroke-linejoin:round;stroke-miterlimit:2"><g id="remove_level"><rect id="bg" width="15.935" height="16" x=".066" y="-.04" style="fill-opacity:0"/><rect width="5" height="5" x="9.001" y="9.96" style="fill-opacity:.25"/><path id="bin" d="M13.001,8.96l2.5,-0c0.133,-0 0.26,0.052 0.354,0.146c0.093,0.094 0.146,0.221 0.146,0.354c0,0.276 -0.224,0.5 -0.5,0.5l-0.5,-0l0,5.5c0,0.276 -0.224,0.5 -0.5,0.5l-6,-0c-0.276,-0 -0.5,-0.224 -0.5,-0.5l0,-5.5l-0.5,-0c-0.276,-0 -0.5,-0.224 -0.5,-0.5c0,-0.133 0.053,-0.26 0.146,-0.354c0.094,-0.094 0.221,-0.146 0.354,-0.146l2.5,-0l0,-0.5c0,-0.133 0.053,-0.26 0.146,-0.354c0.094,-0.094 0.221,-0.146 0.354,-0.146l2,-0c0.133,-0 0.26,0.052 0.354,0.146c0.093,0.094 0.146,0.221 0.146,0.354l0,0.5Zm-4,1l0,5l5,-0l0,-5l-5,-0Zm2,1l0,3l-1,-0l0,-3l1,-0Zm2,-0l0,3l-1,-0l0,-3l1,-0Z"/><path d="M7.001,14.96l-5,-0l0,-14l8,-0l4,4l0,3l-0.086,-0c-0.074,-0.209 -0.194,-0.401 -0.353,-0.561c-0.16,-0.16 -0.352,-0.28 -0.561,-0.353l0,-1.086l-4,-0l0,-4l-6,-0l0,12l4,-0l0,1Z"/></g></svg>