<svg xmlns="http://www.w3.org/2000/svg" xmlns:xlink="http://www.w3.org/1999/xlink" width="16" height="16" version="1.1" xml:space="preserve" style="fill-rule:evenodd;clip-rule:evenodd;stroke-linejoin:round;stroke-miterlimit:2"><g transform="matrix(1,0,0,1,-50,-330)"><g id="resize"><g id="bg" transform="matrix(0.110345,0,0,0.121212,33.7793,311.091)"><rect width="145" height="132" x="147" y="156" style="fill:#878787;fill-opacity:0"/></g><g><path d="M11.996,10L11.996,9L16.481,9L16.481,5.995L19.981,9.498L16.481,13L16.481,10L11.996,10Z" transform="matrix(0.707107,-0.707107,0.707107,0.707107,44.1536,338.415)"/></g><g><path d="M12.001,10L12.001,9L16.481,9L16.481,5.995L19.981,9.498L16.481,13L16.481,10L12.001,10Z" transform="matrix(0.707107,0.707107,-0.707107,0.707107,57.5853,324.155)"/></g><g><path d="M11.999,10L11.999,9L16.481,9L16.481,5.995L19.981,9.498L16.481,13L16.481,10L11.999,10Z" transform="matrix(-0.707107,0.707107,-0.707107,-0.707107,71.8454,337.586)"/></g><g><path d="M11.996,10L11.996,9L16.481,9L16.481,5.995L19.981,9.498L16.481,13L16.481,10L11.996,10Z" transform="matrix(-0.707107,-0.707107,0.707107,-0.707107,58.4137,351.846)"/></g></g></g></svg>