<svg xmlns="http://www.w3.org/2000/svg" xmlns:xlink="http://www.w3.org/1999/xlink" width="100%" height="100%" version="1.1" viewBox="0 0 16 16" xml:space="preserve" style="fill-rule:evenodd;clip-rule:evenodd;stroke-linejoin:round;stroke-miterlimit:2"><g id="save_level"><rect id="bg" width="16" height="16" x=".001" y="-.04" style="fill:#878787;fill-opacity:0"/><path id="sv" d="M16.001,8.96l0,7.01l-9,-0l0,-9l7,-0.01l2,2Zm-4.5,3.01c-0.828,-0 -1.5,0.672 -1.5,1.5c0,0.828 0.672,1.5 1.5,1.5c0.828,-0 1.5,-0.672 1.5,-1.5c0,-0.828 -0.672,-1.5 -1.5,-1.5Zm1.5,-4l-4,-0l0,2l4,-0l0,-2Z"/><path d="M6.001,14.96l-4,-0l0,-14l8,-0l4,4l0,1l-1,-0l0,-1l-3,-0l0,-3l-7,-0l0,12l3,-0l0,1Z"/></g></svg>