<svg xmlns="http://www.w3.org/2000/svg" xmlns:xlink="http://www.w3.org/1999/xlink" width="100%" height="100%" version="1.1" viewBox="0 0 16 16" xml:space="preserve" style="fill-rule:evenodd;clip-rule:evenodd;stroke-linejoin:round;stroke-miterlimit:2"><g id="separate_colors"><rect id="bg" width="16" height="16" x="0" y="0" style="fill:#878787;fill-opacity:0"/><rect width="5" height="5" x="9" y="1" style="fill:#ff2745"/><path d="M14,1l-0,5l-5,-0l0,-5l5,0Zm-1,1l-3,-0l-0,3l3,0l-0,-3Z"/><rect width="5" height="5" x="1" y="9" style="fill:#0073ff"/><path d="M6,9l-0,5l-5,0l-0,-5l5,0Zm-1,1l-3,-0l-0,3l3,0l-0,-3Z"/><path d="M7,7l-0,-7l1,0l-0,7l7,0l-0,1l-7,0l-0,7l-1,0l-0,-7l-7,0l-0,-1l7,0Z"/><rect width="5" height="5" x="9" y="9" style="fill:#66d200"/><path d="M14,9l-0,5l-5,0l0,-5l5,0Zm-1,1l-3,-0l-0,3l3,0l-0,-3Z"/><rect width="5" height="5" x="1" y="1" style="fill:#181818"/><path d="M6,1l-0,5l-5,0l-0,-5l5,0Zm-1,1l-3,-0l-0,3l3,0l-0,-3Z"/></g></svg>