<svg xmlns="http://www.w3.org/2000/svg" xmlns:xlink="http://www.w3.org/1999/xlink" width="16" height="16" version="1.1" xml:space="preserve" style="fill-rule:evenodd;clip-rule:evenodd;stroke-linejoin:round;stroke-miterlimit:2"><g id="rect4485"><path d="M12,10C12,9.448 11.552,9 11,9L3,9C2.448,9 2,9.448 2,10C2,10.552 2.448,11 3,11L11,11C11.552,11 12,10.552 12,10ZM12,5C12,4.448 11.552,4 11,4L3,4C2.448,4 2,4.448 2,5C2,5.552 2.448,6 3,6L11,6C11.552,6 12,5.552 12,5Z" transform="matrix(1,0,0,1,1,1)"/></g></svg>