<svg xmlns="http://www.w3.org/2000/svg" xmlns:xlink="http://www.w3.org/1999/xlink" width="100%" height="100%" version="1.1" viewBox="0 0 16 16" xml:space="preserve" style="fill-rule:evenodd;clip-rule:evenodd;stroke-linejoin:round;stroke-miterlimit:2"><g id="studiopalette"><path id="bg" d="M0,-0l0,16l16,-0l0,-16l-16,-0Z" style="fill:#878787;fill-opacity:0"/><path d="M1,14l0,-13l14,-0l0,13l-14,-0Zm13,-9l-0,-3l-12,0l0,3l12,-0Zm-4,-1.5c0,0.276 -0.224,0.5 -0.5,0.5l-3,-0c-0.276,-0 -0.5,-0.224 -0.5,-0.5c0,-0.276 0.224,-0.5 0.5,-0.5l3,-0c0.276,-0 0.5,0.224 0.5,0.5Zm4,9.5l-0,-3l-12,0l0,3l12,-0Zm-4,-1.5c0,0.276 -0.224,0.5 -0.5,0.5l-3,-0c-0.276,-0 -0.5,-0.224 -0.5,-0.5c0,-0.276 0.224,-0.5 0.5,-0.5l3,-0c0.276,-0 0.5,0.224 0.5,0.5Zm4,-2.5l-0,-3l-12,0l0,3l12,-0Zm-4,-1.5c0,0.276 -0.224,0.5 -0.5,0.5l-3,-0c-0.276,-0 -0.5,-0.224 -0.5,-0.5c0,-0.276 0.224,-0.5 0.5,-0.5l3,-0c0.276,-0 0.5,0.224 0.5,0.5Z"/><path d="M13,16l0,-3l-2,-0l0,3l2,-0Z"/><path d="M5,16l0,-3l-2,-0l0,3l2,-0Z"/></g></svg>