<svg xmlns="http://www.w3.org/2000/svg" xmlns:svg="http://www.w3.org/2000/svg" id="svg9" width="100%" height="100%" version="1.1" viewBox="0 0 16 16" xml:space="preserve" style="fill-rule:evenodd;clip-rule:evenodd;stroke-linejoin:round;stroke-miterlimit:2"><g id="g8948"><rect id="bg" width="16" height="16" x="0" y="0" style="fill:#878787;fill-opacity:0"/><path id="path3" d="m 11,9 h 4 V 7 H 12 V 4 H 8 V 1 H 0 V 9 H 1 V 8 2 H 7 V 9 H 8 V 5 h 3 z m 1,0 V 8 h 2 v 1 z"/><path d="M 4.499,8 H 11 V 7 H 0 V 8 Z M 1,10 c 0.0027,0.526025 -0.257,0.696 0,1 H 14 V 10 Z M 0,4 V 5 H 7 V 4 Z" style="fill-opacity:.5" id="path5"/><path id="rect4189" style="fill:#000;fill-opacity:1;stroke:#000;stroke-width:0;stroke-linecap:square;stroke-linejoin:miter;stroke-miterlimit:2;stroke-dasharray:none" d="m 0,10 v 6 h 16 v -6 z m 1,1 h 4 l 3,2 -3,2 H 1 l 3,-2 z m 7,0 h 4 l 3,2 -3,2 H 8 l 3,-2 z"/></g></svg>