<svg xmlns="http://www.w3.org/2000/svg" xmlns:svg="http://www.w3.org/2000/svg" id="svg12" width="17" height="17" version="1.1" xml:space="preserve" style="clip-rule:evenodd;fill-rule:evenodd;stroke-linejoin:round;stroke-miterlimit:2"><metadata id="metadata18"/><path id="path5" style="fill-rule:nonzero;fill:#000;fill-opacity:.80000001" d="m 16,12.033 c 0,0.522 -0.207,1.022 -0.576,1.391 C 15.054,13.792 14.555,14 14.032,14 H 6 v 2 L 1,12 c 1,0 11.968,0 11.968,0 C 13.538,12 14,11.538 14,10.969 V 9.999 C 14,9.447 14.447,9 14.999,9 h 0.002 C 15.553,9 16,9.447 16,9.999 Z M 1,4.976 C 1,4.453 1.208,3.95 1.579,3.579 1.95,3.208 2.453,3 2.976,3 H 11 V 1 l 5,4 H 3.994 C 3.444,5 3,5.446 3,5.994 V 8.001 C 3,8.266 2.894,8.521 2.707,8.708 2.52,8.895 2.266,9 2.001,9 H 1.999 C 1.734,9 1.48,8.895 1.292,8.708 1.105,8.521 1,8.266 1,8.001 Z"/><path d="M 5.983,10.993 10,6 14,11 Z M 7.055,8.234 4.983,10.993 8.998,10.996 9,11 H 3 L 6,7 Z" style="clip-rule:evenodd;fill:#000;fill-opacity:.80000001;fill-rule:nonzero;stroke-linejoin:round;stroke-miterlimit:2" id="path2"/></svg>