<svg xmlns="http://www.w3.org/2000/svg" xmlns:svg="http://www.w3.org/2000/svg" xmlns:xlink="http://www.w3.org/1999/xlink" id="svg2" x="0" y="0" version="1.1" viewBox="0 0 17 17" style="enable-background:new 0 0 17 17" xml:space="preserve"><style type="text/css">.st0{fill:none;stroke:#000;stroke-width:2;stroke-miterlimit:10}.st1{fill:#fff}</style><path id="path4_2_" d="M13.6,4.9c0,0.3-0.2,0.5-0.4,0.6l-2.4,0.3	c-0.3,0-0.6,0-0.6-0.3c0-0.3,0.3-0.7,0.5-0.7l1.2-0.1c-1.1-1-2.5-1.5-4-1.3C7.6,3.3,7.3,3.3,7,3.4C4.6,4.2,3.1,6.6,3.4,9.2	c0.2,1.4,0.8,2.7,1.9,3.7c1.1,0.9,2.4,1.3,3.8,1.2c0.3,0,0.6-0.1,0.9-0.2c2.4-0.7,3.9-3.2,3.6-5.8l0-0.2c0-0.3,0.1-0.6,0.3-0.6	c0.2-0.1,0.5,0.1,0.6,0.4L14.6,8c0.3,3.2-1.5,6.1-4.3,6.9c-0.3,0.1-0.7,0.2-1.1,0.2c-3.4,0.4-6.4-2.2-6.8-5.8	C2.1,6.2,3.9,3.3,6.7,2.4c0.3-0.1,0.7-0.2,1.1-0.2c1.8-0.2,3.5,0.4,4.7,1.6l-0.2-1.4c0-0.3,0.2-0.5,0.4-0.6c0.3,0,0.5,0.2,0.5,0.5	L13.6,4.9L13.6,4.9z" class="st0"/><path id="path4_1_" d="M13.6,4.9c0,0.3-0.2,0.5-0.4,0.6l-2.4,0.3	c-0.3,0-0.6,0-0.6-0.3c0-0.3,0.3-0.7,0.5-0.7l1.2-0.1c-1.1-1-2.5-1.5-4-1.3C7.6,3.3,7.3,3.3,7,3.4C4.6,4.2,3.1,6.6,3.4,9.2	c0.2,1.4,0.8,2.7,1.9,3.7c1.1,0.9,2.4,1.3,3.8,1.2c0.3,0,0.6-0.1,0.9-0.2c2.4-0.7,3.9-3.2,3.6-5.8l0-0.2c0-0.3,0.1-0.6,0.3-0.6	c0.2-0.1,0.5,0.1,0.6,0.4L14.6,8c0.3,3.2-1.5,6.1-4.3,6.9c-0.3,0.1-0.7,0.2-1.1,0.2c-3.4,0.4-6.4-2.2-6.8-5.8	C2.1,6.2,3.9,3.3,6.7,2.4c0.3-0.1,0.7-0.2,1.1-0.2c1.8-0.2,3.5,0.4,4.7,1.6l-0.2-1.4c0-0.3,0.2-0.5,0.4-0.6c0.3,0,0.5,0.2,0.5,0.5	L13.6,4.9L13.6,4.9z" class="st1"/></svg>