<svg xmlns="http://www.w3.org/2000/svg" xmlns:svg="http://www.w3.org/2000/svg" id="svg2" width="17" height="17" x="0" y="0" version="1.1" viewBox="0 0 17 17" xml:space="preserve"><metadata id="metadata3385"/><style id="style3355" type="text/css">.st0{stroke:#000;stroke-width:2;stroke-miterlimit:10}.st0,.st1{fill:#fff}</style><path id="path3357" d="M 12,8.5 C 12,6.6 10.4,5 8.5,5 6.6,5 5,6.6 5,8.5 5,10.4 6.6,12 8.5,12 10.4,12 12,10.4 12,8.5 Z m 1,0 C 13,11 11,13 8.5,13 6,13 4,11 4,8.5 4,6 6,4 8.5,4 11,4 13,6 13,8.5 Z" class="st0" style="fill:#fff;stroke:#000;stroke-width:2;stroke-miterlimit:10"/><circle id="circle3359" cx="8.5" cy="8.5" r="1.5" class="st0" style="fill:#fff;stroke:#000;stroke-width:2;stroke-miterlimit:10"/><path id="path3361" d="m 12.4,8.5 0,0 C 12.4,8.2 12.6,8 12.9,8 l 2.6,0 C 15.8,8 16,8.2 16,8.5 l 0,0 C 16,8.8 15.8,9 15.5,9 L 12.9,9 C 12.6,9 12.4,8.8 12.4,8.5 Z" class="st0" style="fill:#fff;stroke:#000;stroke-width:2;stroke-miterlimit:10"/><path id="path3363" d="m 1,8.5 0,0 C 1,8.2 1.2,8 1.5,8 l 2.6,0 c 0.3,0 0.5,0.2 0.5,0.5 l 0,0 C 4.6,8.8 4.4,9 4.1,9 L 1.5,9 C 1.2,9 1,8.8 1,8.5 Z" class="st0" style="fill:#fff;stroke:#000;stroke-width:2;stroke-miterlimit:10"/><path id="path3365" d="m 8.5,4.6 0,0 C 8.2,4.6 8,4.4 8,4.1 L 8,1.5 C 8,1.2 8.2,1 8.5,1 l 0,0 C 8.8,1 9,1.2 9,1.5 L 9,4.1 C 9,4.4 8.8,4.6 8.5,4.6 Z" class="st0" style="fill:#fff;stroke:#000;stroke-width:2;stroke-miterlimit:10"/><path id="path3367" d="m 8.5,16 0,0 C 8.2,16 8,15.8 8,15.5 l 0,-2.6 c 0,-0.3 0.2,-0.5 0.5,-0.5 l 0,0 c 0.3,0 0.5,0.2 0.5,0.5 l 0,2.6 C 9,15.8 8.8,16 8.5,16 Z" class="st0" style="fill:#fff;stroke:#000;stroke-width:2;stroke-miterlimit:10"/><path id="path3369" d="m 8.5,4.6 0,0 C 8.2,4.6 8,4.4 8,4.1 L 8,1.5 C 8,1.2 8.2,1 8.5,1 l 0,0 C 8.8,1 9,1.2 9,1.5 L 9,4.1 C 9,4.4 8.8,4.6 8.5,4.6 Z" class="st1" style="fill:#fff"/><path id="path3371" d="m 8.5,16 0,0 C 8.2,16 8,15.8 8,15.5 l 0,-2.6 c 0,-0.3 0.2,-0.5 0.5,-0.5 l 0,0 c 0.3,0 0.5,0.2 0.5,0.5 l 0,2.6 C 9,15.8 8.8,16 8.5,16 Z" class="st1" style="fill:#fff"/><path id="path3373" d="m 12.4,8.5 0,0 C 12.4,8.2 12.6,8 12.9,8 l 2.6,0 C 15.8,8 16,8.2 16,8.5 l 0,0 C 16,8.8 15.8,9 15.5,9 L 12.9,9 C 12.6,9 12.4,8.8 12.4,8.5 Z" class="st1" style="fill:#fff"/><path id="path3375" d="m 1,8.5 0,0 C 1,8.2 1.2,8 1.5,8 l 2.6,0 c 0.3,0 0.5,0.2 0.5,0.5 l 0,0 C 4.6,8.8 4.4,9 4.1,9 L 1.5,9 C 1.2,9 1,8.8 1,8.5 Z" class="st1" style="fill:#fff"/><path id="path3377" d="M 12,8.5 C 12,6.6 10.4,5 8.5,5 6.6,5 5,6.6 5,8.5 5,10.4 6.6,12 8.5,12 10.4,12 12,10.4 12,8.5 Z m 1,0 C 13,11 11,13 8.5,13 6,13 4,11 4,8.5 4,6 6,4 8.5,4 11,4 13,6 13,8.5 Z" class="st1" style="fill:#fff"/><circle id="circle3379" cx="8.5" cy="8.5" r="1.5" class="st1" style="fill:#fff"/></svg>