<svg xmlns="http://www.w3.org/2000/svg" xmlns:svg="http://www.w3.org/2000/svg" xmlns:xlink="http://www.w3.org/1999/xlink" id="svg2" x="0" y="0" version="1.1" viewBox="0 0 17 17" style="enable-background:new 0 0 17 17" xml:space="preserve"><style type="text/css">.st0,.st1{fill:none}.st1{stroke:#404040;stroke-width:2;stroke-linecap:square;stroke-miterlimit:3}.st2{fill:#fff}</style><g><rect id="rect5" width="17" height="17" class="st0"/><g id="g7"><path id="path9" d="M10,15H7l1.5-2L10,15z M6,6h5v5H6V6z M13,8.5L15,7v3L13,8.5z M4,8.5L2,7v3L4,8.5z M8.5,4L7,2h3L8.5,4z" class="st1"/><path id="path11" d="M10,15H7l1.5-2L10,15z M6,6h5v5H6V6z M13,8.5L15,7v3L13,8.5z M4,8.5L2,7v3L4,8.5z M8.5,4L7,2h3L8.5,4z" class="st2"/></g></g></svg>