<svg xmlns="http://www.w3.org/2000/svg" xmlns:svg="http://www.w3.org/2000/svg" xmlns:xlink="http://www.w3.org/1999/xlink" id="svg2" x="0" y="0" version="1.1" viewBox="0 0 17 17" style="enable-background:new 0 0 17 17" xml:space="preserve"><style type="text/css">.st0{fill:none;stroke:#404040;stroke-width:2;stroke-linecap:square;stroke-miterlimit:3}.st1{fill:#ebebeb}</style><g id="g7" transform="translate(-2,0)"><path id="path9" d="M12,15H9l1.5-2L12,15z M8,6h5v5H8V6z M15,8.5L17,7v3L15,8.5z M6,8.5L4,7v3L6,8.5z M10.5,4L9,2h3L10.5,4z" class="st0"/><path id="path11" d="M12,15H9l1.5-2L12,15z M8,6h5v5H8V6z M15,8.5L17,7v3L15,8.5z M6,8.5L4,7v3L6,8.5z M10.5,4L9,2h3L10.5,4z" class="st1"/></g></svg>