<svg xmlns="http://www.w3.org/2000/svg" xmlns:svg="http://www.w3.org/2000/svg" xmlns:xlink="http://www.w3.org/1999/xlink" id="svg2" x="0" y="0" version="1.1" viewBox="0 0 17 17" style="enable-background:new 0 0 17 17" xml:space="preserve"><style type="text/css">.st0,.st1{fill:none}.st1{stroke:#404040;stroke-width:2;stroke-miterlimit:3}.st2{fill:#fff}</style><rect id="rect4" width="21" height="17" x="-2" y="0" class="st0"/><g id="Layer1"><path id="path7" d="M8,4h0.2L10,6.5L11.8,4h2.7l-3.3,4.5l3.2,4.5h-2.5l-2-2.5l-2,2.5 H5.5L9,8.5L7,6H3v1h4v2H3v4H1V4H8z" class="st1"/><path id="path9" d="M8,4h0.2L10,6.5L11.8,4h2.7l-3.3,4.5l3.2,4.5h-2.5l-2-2.5l-2,2.5 H5.5L9,8.5L7,6H3v1h4v2H3v4H1V4H8z" class="st2"/></g></svg>