<svg xmlns="http://www.w3.org/2000/svg" xmlns:svg="http://www.w3.org/2000/svg" id="svg2" x="0" y="0" version="1.1" viewBox="0 0 17 17" style="enable-background:new 0 0 17 17" xml:space="preserve"><metadata id="metadata15"/><style id="style3" type="text/css">.st0{fill:none}.st1{stroke:#404040;stroke-width:2;stroke-linecap:square;stroke-miterlimit:1.5}.st1,.st2{fill:#fff}.st4{fill:#404040}</style><rect id="rect4" width="17" height="17" y="0" class="st0"/><g id="Layer1"><g id="g7" transform="matrix(1.0941738,0,0,1.1008095,1.9028578,-1.407286)"><rect id="rect9" width="8.001" height="7.993" x="2" y="5.003" class="st1" style="fill:#fff;stroke:#404040;stroke-width:1.99926496;stroke-linecap:square;stroke-miterlimit:1.5"/><rect id="rect11" width="8.225" height="8.176" x="1.917" y="4.912" class="st2" style="fill:#fff"/></g><path id="path15" d="M 6,12 5,12 5,5 10,5 10,6 6,6 6,8 8,8 8,9 6,9 m 6,3 -1.122881,0 L 10,11 9,12 8,12 8,11 9,10 8,9 8,8 l 1,0 1,1 1,-1 1,0 0,1 -1,1 1,1 z" class="st4" style="fill:#404040"/></g></svg>