<svg xmlns="http://www.w3.org/2000/svg" xmlns:svg="http://www.w3.org/2000/svg" xmlns:xlink="http://www.w3.org/1999/xlink" id="svg2" x="0" y="0" version="1.1" viewBox="0 0 15 15" style="enable-background:new 0 0 15 15" xml:space="preserve"><style type="text/css">.st0{fill:#a1a1a1}.st1{fill:#5f5f5f}.st2{fill:#313131}.st3{fill:#727272}.st4{fill:#d4d4d4}</style><g id="path9"><path d="M1.2,14.5c-0.4,0-0.7-0.3-0.7-0.7V1.2c0-0.4,0.3-0.7,0.7-0.7h12.6c0.4,0,0.7,0.3,0.7,0.7v12.6 c0,0.4-0.3,0.7-0.7,0.7H1.2z" class="st0"/><path d="M13.8,1C13.9,1,14,1.1,14,1.2v12.6c0,0.1-0.1,0.2-0.2,0.2H1.2C1.1,14,1,13.9,1,13.8V1.2C1,1.1,1.1,1,1.2,1 H13.8 M13.8,0H1.2C0.5,0,0,0.5,0,1.2v12.6C0,14.5,0.5,15,1.2,15h12.6c0.7,0,1.2-0.5,1.2-1.2V1.2C15,0.5,14.5,0,13.8,0L13.8,0z" class="st1"/></g><path d="M8,13H6V7.8C4.8,7.4,4,6.3,4,5c0-1.7,1.3-3,3-3s3,1.3,3,3c0,1.3-0.8,2.4-2,2.8V10h2v2H8V13z" class="st2"/><circle cx="7" cy="5" r="1.5" class="st0"/><path id="path15" d="M1,13h12V1h1v13H1V13z" class="st3"/><path id="path17" d="M2,13H1V1h12v1H2V13z" class="st4"/></svg>