<svg xmlns="http://www.w3.org/2000/svg" xmlns:svg="http://www.w3.org/2000/svg" xmlns:xlink="http://www.w3.org/1999/xlink" id="svg2" x="0" y="0" version="1.1" viewBox="0 0 15 15" style="enable-background:new 0 0 15 15" xml:space="preserve"><style type="text/css">.st0{fill:#e38e3d}.st1{fill:#543010}.st2{fill:#313131}.st3{fill:#fee4a6}.st4{fill-opacity:.2314}</style><g id="path9"><path d="M1.2,14.6c-0.4,0-0.7-0.3-0.7-0.7V1.3c0-0.4,0.3-0.7,0.7-0.7h12.6c0.4,0,0.7,0.3,0.7,0.7v12.6 c0,0.4-0.3,0.7-0.7,0.7H1.2z" class="st0"/><path d="M13.8,1.1c0.1,0,0.2,0.1,0.2,0.2v12.6c0,0.1-0.1,0.2-0.2,0.2H1.2C1.1,14.1,1,14,1,13.9V1.3 c0-0.1,0.1-0.2,0.2-0.2H13.8 M13.8,0.1H1.2C0.6,0.1,0,0.6,0,1.3v12.6c0,0.7,0.5,1.2,1.2,1.2h12.6c0.7,0,1.2-0.5,1.2-1.2V1.3 C15,0.6,14.5,0.1,13.8,0.1L13.8,0.1z" class="st1"/></g><path d="M8,13.1H6V7.9C4.8,7.5,4,6.4,4,5.1c0-1.7,1.3-3,3-3s3,1.3,3,3c0,1.3-0.8,2.4-2,2.8v2.2h2v2H8V13.1z" class="st2"/><circle cx="7" cy="5.1" r="1.5" class="st0"/><path id="path15" d="M1,13.1h12v-12h1v13H1V13.1z" class="st3"/><path id="path17" d="M2,13.1H1v-12h12v1H2V13.1z" class="st4"/></svg>