<svg xmlns="http://www.w3.org/2000/svg" xmlns:svg="http://www.w3.org/2000/svg" id="svg4489" width="100%" height="100%" version="1.1" viewBox="0 0 18 18"><metadata id="metadata4486"/><rect id="rect2" width="1" height="1" x="0" y="17" style="clip-rule:evenodd;fill:none;fill-rule:evenodd;stroke-width:.05555556;stroke-linejoin:round;stroke-miterlimit:1.41420996"/><path style="clip-rule:evenodd;fill:#303030;fill-opacity:.78431373;fill-rule:evenodd;stroke:#303030;stroke-width:2;stroke-linecap:butt;stroke-linejoin:round;stroke-miterlimit:1.41420996;stroke-dasharray:none;stroke-opacity:1;paint-order:markers stroke fill" id="path4509" d="M 12.5,2 C 10.567766,1.9999997 9.0010783,3.565813 9,5.4980469 V 7 h 1 V 5.4980469 C 10.001078,4.118098 11.120051,2.9999996 12.5,3 c 1.379949,-4e-7 2.498922,1.118098 2.5,2.4980469 V 7 h 1 V 5.4980469 C 15.998922,3.565813 14.432234,1.9999997 12.5,2 Z M 3,8 v 7 h 9 V 8 Z"/><path id="path4491" d="m 12.500001,2.0000002 c -1.932234,-3e-7 -3.4989219,1.5658129 -3.5000003,3.4980469 V 7.0000006 H 10.000001 V 5.4980471 c 0.0011,-1.379949 1.12005,-2.4980473 2.5,-2.4980469 1.37995,-4e-7 2.498922,1.1180979 2.5,2.4980469 v 1.5019535 h 1 V 5.4980471 c -0.0011,-1.932234 -1.567766,-3.4980472 -3.5,-3.4980469 z" style="clip-rule:evenodd;fill:#e6e6e6;fill-opacity:1;fill-rule:evenodd;stroke:none;stroke-width:2.00000024;stroke-linecap:butt;stroke-linejoin:round;stroke-miterlimit:1.41420996;stroke-dasharray:none;stroke-opacity:1;paint-order:markers stroke fill"/><path id="path4493" d="M 3.0000002,8.0000006 V 15.000001 H 12.000001 V 8.0000006 Z" style="clip-rule:evenodd;fill:#e6e6e6;fill-opacity:1;fill-rule:evenodd;stroke:none;stroke-width:2.00000024;stroke-linecap:butt;stroke-linejoin:round;stroke-miterlimit:1.41420996;stroke-dasharray:none;stroke-opacity:1;paint-order:markers stroke fill"/><circle id="path820" cx="7.5" cy="10.5" r="1.5" style="fill:#303030;fill-opacity:1;stroke:none;stroke-width:2;stroke-linecap:round;stroke-linejoin:round;stroke-miterlimit:4;stroke-dasharray:none;stroke-opacity:1;paint-order:normal"/><rect id="rect822" width="1.5" height="3" x="6.75" y="11" style="fill:#303030;fill-opacity:1;stroke:none;stroke-width:2;stroke-linecap:round;stroke-linejoin:round;stroke-miterlimit:4;stroke-dasharray:none;stroke-opacity:1;paint-order:normal"/></svg>