<svg xmlns="http://www.w3.org/2000/svg" xmlns:svg="http://www.w3.org/2000/svg" xmlns:xlink="http://www.w3.org/1999/xlink" id="svg2" x="0" y="0" version="1.1" viewBox="0 0 17 17" style="enable-background:new 0 0 17 17" xml:space="preserve"><style type="text/css">.st0,.st1{fill:none}.st1{stroke:#404040;stroke-width:2;stroke-linejoin:round;stroke-miterlimit:1.4142}.st2{fill:#fff}</style><rect id="rect4" width="17" height="17" class="st0"/><g id="Layer1"><path id="path7" d="M12.1,3.8c0.3,0,0.6,0,0.9,0.1c0.6,0.2,1.1,0.5,1.5,0.9 c0.2,0.2,0.3,0.4,0.4,0.6c0.2,0.4,0.4,0.7,0.6,1.1c0,0,0,0.1,0,0.1c0,0.1,0,0.3,0,0.4c-0.1,0.3-0.4,0.5-0.7,0.5 c-0.1,0-0.1,0-0.2-0.1c-0.1-0.1-0.2-0.1-0.3-0.2c-0.2-0.4-0.4-0.8-0.6-1.1c-0.1-0.2-0.3-0.4-0.5-0.6c-0.2-0.1-0.4-0.2-0.6-0.3 c-0.7-0.2-1.4-0.1-2,0.4c-0.2,0.2-0.4,0.4-0.5,0.6c-1,1.8-1.9,3.6-2.8,5.4c-0.1,0.1-0.1,0.2-0.2,0.3c-0.2,0.2-0.4,0.4-0.6,0.6 c-0.3,0.3-0.7,0.4-1.1,0.5c-0.5,0.1-1,0.1-1.4,0c-0.3-0.1-0.5-0.2-0.8-0.3c-0.2-0.2-0.5-0.3-0.6-0.6c-0.1-0.1-0.2-0.2-0.2-0.3 c-0.3-0.5-0.7-1.1-1-1.7c0,0,0-0.1-0.1-0.1c0-0.1-0.1-0.3,0-0.4c0-0.1,0-0.1,0.1-0.2C1.6,9.3,2,9.2,2.3,9.3c0.1,0,0.2,0.1,0.3,0.2 c0.4,0.5,0.7,1.1,1,1.7c0.1,0.2,0.3,0.4,0.5,0.5c0.1,0.1,0.3,0.1,0.4,0.2c0.5,0.1,1,0,1.4-0.3c0.2-0.1,0.3-0.3,0.4-0.5 c1-1.8,1.9-3.7,2.9-5.5c0.1-0.2,0.3-0.4,0.4-0.6c0.4-0.4,0.9-0.8,1.5-1c0.3-0.1,0.6-0.1,0.9-0.1C12,3.8,12.1,3.8,12.1,3.8 C12.1,3.8,12.1,3.8,12.1,3.8z" class="st1"/><path id="path9" d="M12.1,3.8c0.3,0,0.6,0,0.9,0.1c0.6,0.2,1.1,0.5,1.5,0.9 c0.2,0.2,0.3,0.4,0.4,0.6c0.2,0.4,0.4,0.7,0.6,1.1c0,0,0,0.1,0,0.1c0,0.1,0,0.3,0,0.4c-0.1,0.3-0.4,0.5-0.7,0.5 c-0.1,0-0.1,0-0.2-0.1c-0.1-0.1-0.2-0.1-0.3-0.2c-0.2-0.4-0.4-0.8-0.6-1.1c-0.1-0.2-0.3-0.4-0.5-0.6c-0.2-0.1-0.4-0.2-0.6-0.3 c-0.7-0.2-1.4-0.1-2,0.4c-0.2,0.2-0.4,0.4-0.5,0.6c-1,1.8-1.9,3.6-2.8,5.4c-0.1,0.1-0.1,0.2-0.2,0.3c-0.2,0.2-0.4,0.4-0.6,0.6 c-0.3,0.3-0.7,0.4-1.1,0.5c-0.5,0.1-1,0.1-1.4,0c-0.3-0.1-0.5-0.2-0.8-0.3c-0.2-0.2-0.5-0.3-0.6-0.6c-0.1-0.1-0.2-0.2-0.2-0.3 c-0.3-0.5-0.7-1.1-1-1.7c0,0,0-0.1-0.1-0.1c0-0.1-0.1-0.3,0-0.4c0-0.1,0-0.1,0.1-0.2C1.6,9.3,2,9.2,2.3,9.3c0.1,0,0.2,0.1,0.3,0.2 c0.4,0.5,0.7,1.1,1,1.7c0.1,0.2,0.3,0.4,0.5,0.5c0.1,0.1,0.3,0.1,0.4,0.2c0.5,0.1,1,0,1.4-0.3c0.2-0.1,0.3-0.3,0.4-0.5 c1-1.8,1.9-3.7,2.9-5.5c0.1-0.2,0.3-0.4,0.4-0.6c0.4-0.4,0.9-0.8,1.5-1c0.3-0.1,0.6-0.1,0.9-0.1C12,3.8,12.1,3.8,12.1,3.8 C12.1,3.8,12.1,3.8,12.1,3.8z" class="st2"/></g></svg>