<svg xmlns="http://www.w3.org/2000/svg" xmlns:svg="http://www.w3.org/2000/svg" id="svg23" width="100%" height="100%" version="1.1" viewBox="0 0 18 18" xml:space="preserve" style="fill-rule:evenodd;clip-rule:evenodd;stroke-linejoin:round;stroke-miterlimit:1.41421"><metadata id="metadata27"/><rect id="rect2" width="18" height="18" x="0" y="0" style="fill:none"/><path d="M15,6l-11,0l0,4l3,3l8,0l0,-7Z" style="fill:#e6e6e6;fill-opacity:1" id="path4"/><path d="M16,5l0,9l-9.414,0l-3.586,-3.586l0,-5.414l13,0Zm-12,1l0,4l3,3l8,0l0,-7l-11,0Z" style="fill:#303030;fill-opacity:1" id="path6"/><path d="M7,10l-3,0l3,3l0,-3Z" style="fill:#fff" id="path8"/><path d="M8,9l0,4l-1,0l0,-3l-4,0l0,-1l5,0Z" style="fill:#303030;fill-opacity:1" id="path10"/><rect id="rect12" width="4" height="1" x="5" y="4" style="fill:#fff"/><path d="M10,6l-6,0l0,-3l6,0l0,3Zm-5,-2l0,1l4,0l0,-1l-4,0Z" style="fill:#303030;fill-opacity:1" id="path14"/><defs id="defs21"><linearGradient id="_Linear1" x1="0" x2="1" y1="0" y2="0" gradientTransform="matrix(-4,5,-5,-4,10,9)" gradientUnits="userSpaceOnUse"><stop offset="0" style="stop-color:#e6e6e6;stop-opacity:1" id="stop16"/><stop offset="1" style="stop-color:#989898;stop-opacity:1" id="stop18"/></linearGradient></defs></svg>