<svg xmlns="http://www.w3.org/2000/svg" xmlns:svg="http://www.w3.org/2000/svg" xmlns:xlink="http://www.w3.org/1999/xlink" id="svg2" x="0" y="0" version="1.1" viewBox="0 0 21 17" style="enable-background:new 0 0 21 17" xml:space="preserve"><style type="text/css">.st0{fill:#92ff00;stroke:#404040;stroke-width:2;stroke-linecap:square;stroke-miterlimit:1.5}.st1{fill:#ffd200}</style><rect id="rect7" width="2" height="2" x="5" y="5" class="st0"/><rect id="rect9" width="2" height="2" x="5" y="5" class="st1"/><rect id="rect11" width="2" height="2" x="8" y="5" class="st0"/><rect id="rect13" width="2" height="2" x="8" y="5" class="st1"/><rect id="rect15" width="2" height="2" x="11" y="5" class="st0"/><rect id="rect17" width="2" height="2" x="11" y="5" class="st1"/><rect id="rect19" width="2" height="2" x="14" y="5" class="st0"/><rect id="rect21" width="2" height="2" x="14" y="5" class="st1"/><rect id="rect23" width="2" height="2" x="5" y="8" class="st0"/><rect id="rect25" width="2" height="2" x="5" y="8" class="st1"/><rect id="rect27" width="2" height="2" x="8" y="8" class="st0"/><rect id="rect29" width="2" height="2" x="8" y="8" class="st1"/><rect id="rect31" width="2" height="2" x="11" y="8" class="st0"/><rect id="rect33" width="2" height="2" x="11" y="8" class="st1"/><rect id="rect35" width="2" height="2" x="14" y="8" class="st0"/><rect id="rect37" width="2" height="2" x="14" y="8" class="st1"/><rect id="rect39" width="2" height="2" x="5" y="11" class="st0"/><rect id="rect41" width="2" height="2" x="5" y="11" class="st1"/><rect id="rect43" width="2" height="2" x="8" y="11" class="st0"/><rect id="rect45" width="2" height="2" x="8" y="11" class="st1"/><rect id="rect47" width="2" height="2" x="11" y="11" class="st0"/><rect id="rect49" width="2" height="2" x="11" y="11" class="st1"/><rect id="rect51" width="2" height="2" x="14" y="11" class="st0"/><rect id="rect53" width="2" height="2" x="14" y="11" class="st1"/></svg>