<svg xmlns="http://www.w3.org/2000/svg" xmlns:svg="http://www.w3.org/2000/svg" id="svg2" width="20" height="15" x="0" y="0" version="1.1" viewBox="0 0 20 15" xml:space="preserve"><metadata id="metadata32"/><style id="style2" type="text/css"/><path id="rect7" d="M 4,3.9999999 V 6 H 6 V 3.9999999 Z m 3,0 V 6 H 9 V 3.9999999 Z m 3,0 V 6 h 2 V 3.9999999 Z m 3,0 V 6 h 2 V 3.9999999 Z m -3,3 v 2 h 2 v -2 z M 4,7 V 8.9999999 H 6 V 7 Z M 7,7 V 8.9999999 H 9 V 7 Z m 6,0 v 1.9999999 h 2 V 7 Z M 4,9.9999999 V 12 H 6 V 9.9999999 Z m 3,0 V 12 H 9 V 9.9999999 Z m 3,0 V 12 h 2 V 9.9999999 Z m 3,0 V 12 h 2 V 9.9999999 Z" style="fill:none;fill-opacity:1;stroke:#303030;stroke-width:2;stroke-linecap:square;stroke-miterlimit:1.5;stroke-opacity:1"/><path id="rect9" d="M 4,4 V 6 H 6 V 4 Z M 7,4 V 6 H 9 V 4 Z m 3,0 v 2 h 2 V 4 Z m 3,0 v 2 h 2 V 4 Z M 4,7 V 9 H 6 V 7 Z M 7,7 V 9 H 9 V 7 Z m 3,0 v 2 h 2 V 7 Z m 3,0 v 2 h 2 V 7 Z m -9,3 v 2 h 2 v -2 z m 3,0 v 2 h 2 v -2 z m 3,0 v 2 h 2 v -2 z m 3,0 v 2 h 2 v -2 z" style="fill:#bfbfbf;fill-opacity:1"/></svg>