<svg xmlns="http://www.w3.org/2000/svg" xmlns:svg="http://www.w3.org/2000/svg" xmlns:xlink="http://www.w3.org/1999/xlink" id="svg2" x="0" y="0" version="1.1" viewBox="0 0 17 17" style="enable-background:new 0 0 17 17" xml:space="preserve"><style type="text/css">.st0{fill:none}.st1,.st2{fill:#fff}.st2{fill-opacity:.75}</style><rect id="rect4_1_" width="15" height="15" x="1" y="1" class="st0"/><rect id="rect6_1_" width="13" height="13" x="2" y="2" class="st1"/><path id="path7" d="M15,16H2c-0.6,0-1-0.5-1-1V2c0-0.6,0.5-1,1-1h13c0.6,0,1,0.5,1,1	v13C16,15.6,15.6,16,15,16z M2.5,14.5h12v-12h-12l0,0V14.5z" class="st1"/><path id="path9_1_" d="M15,8.5c-1.5,2.1-3.9,3.5-6.5,3.5S3.6,10.6,2,8.5l0,0	C3.6,6.4,5.9,5,8.5,5S13.4,6.4,15,8.5L15,8.5z" class="st2"/><path id="path16" d="M8.5,10.9c-2.1,0-3.9-0.9-5.1-2.4l0,0C4.6,7,6.5,6.1,8.5,6.1	c2.1,0,3.9,0.9,5.1,2.4l0,0C12.4,10,10.6,10.9,8.5,10.9z M15,8.5C13.4,6.4,11.1,5,8.5,5S3.6,6.4,2,8.5l0,0C3.6,10.6,5.9,12,8.5,12	S13.4,10.6,15,8.5L15,8.5z"/><circle id="circle16_1_" cx="8.5" cy="8.5" r="2.5"/><circle id="circle18_1_" cx="7.5" cy="7.5" r="1" class="st1"/></svg>