<svg xmlns="http://www.w3.org/2000/svg" xmlns:svg="http://www.w3.org/2000/svg" xmlns:xlink="http://www.w3.org/1999/xlink" id="svg2" x="0" y="0" version="1.1" viewBox="0 0 17 17" style="enable-background:new 0 0 17 17" xml:space="preserve"><style type="text/css">.st0{fill:#fff}.st1{fill:#ffdc00}.st2{fill:none;stroke:#000;stroke-width:2;stroke-linecap:square;stroke-miterlimit:1.5}.st3{fill:#a2a2a2}</style><g><g id="Layer1"><g id="g7"><polygon points="2.2 14.8 14.8 14.8 14.8 2.2 2.2 2.2 2.2 2.2" class="st0"/><path d="M15,16H2c-0.6,0-1-0.5-1-1V2c0-0.6,0.5-1,1-1h13c0.6,0,1,0.5,1,1v13C16,15.6,15.6,16,15,16z M2.5,14.5h12 v-12h-12l0,0V14.5z" class="st1"/></g><g id="g13"><rect id="rect15" width="7" height="7" x="5" y="5" class="st2"/><rect id="rect17" width="7" height="7" x="5" y="5" class="st0"/></g><path id="path19" d="M12,9H9v3H5V8h3V5h4V9z" class="st3"/></g></g></svg>