<svg xmlns="http://www.w3.org/2000/svg" xmlns:svg="http://www.w3.org/2000/svg" id="svg2" x="0" y="0" version="1.1" viewBox="0 0 36 14" style="enable-background:new 0 0 36 14" xml:space="preserve"><metadata id="metadata24"/><style id="style3" type="text/css">.st0{fill:#a2a2a2}</style><g id="g6"><rect id="rect4" width="36" height="14" y="0" class="st0"/><g id="Layer1"><g id="g10"><path id="path12" d="M5.8,9.7h3.9v1.7H3.5V2.8h2.3V9.7z"/><path id="path14" d="M13.8,2.6v1.9h-2.1V2.6H13.8z M13.8,5v6.4h-2.1V5H13.8z"/><path id="path16" d="M22.6,11.4h-2.1V7.8c0-0.4,0-0.7-0.1-0.9c0-0.2-0.1-0.3-0.3-0.4c-0.1-0.1-0.3-0.2-0.6-0.2c-0.7,0-1.1,0.5-1.1,1.5v3.6 h-2.1V5h2v1.1c0.3-0.5,0.6-0.8,1-1s0.7-0.2,1-0.2c0.7,0,1.2,0.2,1.6,0.5c0.4,0.3,0.6,1,0.6,1.9V11.4z"/><path id="path18" d="M30,7.2l2.3,4.2H30l-1.5-2.9l-1.2,1.3v1.6h-2V2.8h2V8l0.3-0.3c0.1-0.2,0.2-0.3,0.3-0.4L30,5H32L30,7.2z"/></g></g></g></svg>