<svg xmlns="http://www.w3.org/2000/svg" xmlns:svg="http://www.w3.org/2000/svg" xmlns:xlink="http://www.w3.org/1999/xlink" id="svg2" x="0" y="0" version="1.1" viewBox="0 0 16 16" style="enable-background:new 0 0 16 16" xml:space="preserve"><style type="text/css">.st0{fill:none}.st1{opacity:.502;fill:#fff}.st2{fill:#2e2e2e}</style><rect id="rect5" width="16" height="16" y="0" class="st0"/><path d="M1,15.5c-0.2,0-0.3-0.1-0.4-0.2s-0.1-0.3,0-0.5l7-14C7.6,0.6,7.8,0.5,8,0.5s0.4,0.1,0.4,0.3l7,14	c0.1,0.2,0.1,0.3,0,0.5c-0.1,0.1-0.3,0.2-0.4,0.2H1z" class="st1"/><path d="M8,1l7,14H1L8,1 M8,0C7.6,0,7.3,0.2,7.1,0.6l-7,14c-0.2,0.3-0.1,0.7,0,1S0.7,16,1,16h14c0.3,0,0.7-0.2,0.9-0.5	s0.2-0.7,0-1l-7-14C8.7,0.2,8.4,0,8,0L8,0z" class="st2"/></svg>