<svg xmlns="http://www.w3.org/2000/svg" xmlns:svg="http://www.w3.org/2000/svg" id="svg2" width="28" height="14" x="0" y="0" version="1.1" viewBox="0 0 28 14" xml:space="preserve"><metadata id="metadata24"/><style id="style3" type="text/css">.st0{fill:#a2a2a2}</style><g id="g6" transform="matrix(1,0,0,1.2857143,0,-4)"><g id="g4161" transform="matrix(0.77777778,0,0,0.77777777,0,3.1111112)"><rect style="fill:#a2a2a2" id="rect4" width="36" height="14" x="0" y="0" class="st0"/><g id="Layer1"><g id="g10"><path id="path12" d="m 5.8,9.7 3.9,0 0,1.7 -6.2,0 0,-8.6 2.3,0 0,6.9 z"/><path id="path14" d="m 13.8,2.6 0,1.9 -2.1,0 0,-1.9 2.1,0 z m 0,2.4 0,6.4 -2.1,0 0,-6.4 2.1,0 z"/><path id="path16" d="m 22.6,11.4 -2.1,0 0,-3.6 c 0,-0.4 0,-0.7 -0.1,-0.9 C 20.4,6.7 20.3,6.6 20.1,6.5 20,6.4 19.8,6.3 19.5,6.3 c -0.7,0 -1.1,0.5 -1.1,1.5 l 0,3.6 -2.1,0 0,-6.4 2,0 0,1.1 c 0.3,-0.5 0.6,-0.8 1,-1 0.4,-0.2 0.7,-0.2 1,-0.2 0.7,0 1.2,0.2 1.6,0.5 0.4,0.3 0.6,1 0.6,1.9 l 0,4.1 z"/><path id="path18" d="m 30,7.2 2.3,4.2 -2.3,0 -1.5,-2.9 -1.2,1.3 0,1.6 -2,0 0,-8.6 2,0 0,5.2 0.3,-0.3 C 27.7,7.5 27.8,7.4 27.9,7.3 L 30,5 32,5 30,7.2 Z"/></g></g></g></g></svg>