<svg xmlns="http://www.w3.org/2000/svg" xmlns:svg="http://www.w3.org/2000/svg" xmlns:xlink="http://www.w3.org/1999/xlink" id="svg2" x="0" y="0" version="1.1" viewBox="0 0 17 17" style="enable-background:new 0 0 17 17" xml:space="preserve"><style type="text/css">.st0{fill:none}.st1{stroke:#404040;stroke-width:2;stroke-linecap:square;stroke-miterlimit:1.5}.st1,.st2{fill:#fff}.st3{fill:#a2a2a2}.st4{fill:#404040}</style><rect id="rect4" width="17" height="17" y="0" class="st0"/><g id="Layer1"><g id="g7"><rect id="rect9" width="8" height="8" x="2" y="5" class="st1"/><rect id="rect11" width="8" height="8" x="2" y="5" class="st2"/></g><rect id="rect13" width="4" height="8" x="11" y="5" class="st3"/><path id="path15" d="M16,14h-5v-1h4V5h-4V4h5V14z M8,8H7V7H5v1h2v1H5v2h2v1H3v-1h1V7 H3V6h5V8z M14,11h-1v1h-1v-2h2V11z M8,11H7V9h1V11z M13,7h1v1h-2V6h1V7z" class="st4"/></g></svg>