<svg xmlns="http://www.w3.org/2000/svg" xmlns:svg="http://www.w3.org/2000/svg" xmlns:xlink="http://www.w3.org/1999/xlink" id="svg2" x="0" y="0" version="1.1" viewBox="0 0 13 13" style="enable-background:new 0 0 13 13" xml:space="preserve"><style type="text/css">.st0{fill:none}.st1{fill:#fbe563}.st2{fill:#404040}</style><rect id="rect4" width="13" height="13" y="0" class="st0"/><circle id="circle8" cx="6.5" cy="6.5" r="6" class="st1"/><path d="M6.5,0.7c3.2,0,5.8,2.6,5.8,5.8s-2.6,5.8-5.8,5.8S0.8,9.7,0.8,6.5S3.3,0.7,6.5,0.7 M6.5,0C2.9,0,0,2.9,0,6.5	S2.9,13,6.5,13S13,10.1,13,6.5S10.1,0,6.5,0L6.5,0z" class="st2"/><path id="path12" d="M7.5,9v2h-2V9H7.5z M7.5,2v6h-2V2H7.5z"/></svg>