<svg xmlns="http://www.w3.org/2000/svg" xmlns:xlink="http://www.w3.org/1999/xlink" width="15" height="15" version="1.1" xml:space="preserve" style="fill-rule:evenodd;clip-rule:evenodd;stroke-linejoin:round;stroke-miterlimit:2"><g><path d="M18,2C18,0.896 17.104,0 16,0L2,0C0.896,0 0,0.896 0,2L0,16C0,17.104 0.896,18 2,18L16,18C17.104,18 18,17.104 18,16L18,2Z" style="fill:#000;fill-opacity:.2" transform="matrix(0.833333,0,0,0.833333,0,0)"/></g><g><path d="M5,9.993L9.509,4.847L14.017,10L5,9.993Z" style="fill:#000" transform="matrix(0.776297,0,0,0.776297,1.11852,2.23703)"/></g><g><path d="M6.072,7.234L3.477,9.994L1,9.995L4.5,5L6.072,7.234Z" style="fill:#000" transform="matrix(0.605651,0,0,0.605651,1.39435,3.94147)"/></g></svg>